<?xml version="1.0" encoding="UTF-8" standalone="no"?><svg xmlns="http://www.w3.org/2000/svg" xmlns:xlink="http://www.w3.org/1999/xlink" contentScriptType="application/ecmascript" contentStyleType="text/css" height="700px" preserveAspectRatio="none" style="width:1256px;height:700px;" version="1.1" viewBox="0 0 1256 700" width="1256.25px" zoomAndPan="magnify">
    <defs />
    <g>
        <!--class Creator-->
        <rect fill="#FFFFFF" height="253.8086" id="Creator" style="stroke: #000000; stroke-width: 3.125;" width="568.75" x="92.1875" y="25" />
        <rect fill="#FFFFFF" height="93.75" style="stroke: #000000; stroke-width: 3.125;" width="568.75" x="92.1875" y="25" />
        <ellipse cx="289.0625" cy="71.875" fill="#ADD1B2" rx="31.25" ry="31.25" style="stroke: #000000; stroke-width: 3.125;" />
        <path d="M300.1953,75.8789 Q299.707,83.5938 296.9727,86.3281 Q294.5801,88.7207 291.3086,88.7207 Q288.0859,88.7207 285.6934,86.3281 Q281.3965,82.0313 281.3965,72.998 Q281.3965,62.4023 286.0352,57.7637 Q288.4277,55.3711 291.5039,55.3711 Q294.7266,55.3711 296.6309,57.2754 Q300.1953,60.8398 300.0488,66.9922 L296.2891,66.9922 Q296.0938,61.5234 294.2383,59.668 Q293.2129,58.6426 291.5039,58.6426 Q289.9414,58.6426 288.7695,59.8145 Q285.3516,63.2324 285.3516,72.6563 Q285.3516,80.8594 288.2324,83.7402 Q289.5996,85.1074 291.3086,85.1074 Q292.8711,85.1074 294.2383,83.7402 Q295.9473,82.0313 296.0938,75.8789 L300.1953,75.8789 Z " /><text fill="#000000" font-family="sans-serif" font-size="43.75" lengthAdjust="spacingAndGlyphs" textLength="150" x="348.4375" y="89.7766">Creator</text>
        <line style="stroke: #000000; stroke-width: 3.125;" x1="95.3125" x2="657.8125" y1="118.75" y2="118.75" />
        <line style="stroke: #000000; stroke-width: 3.125;" x1="95.3125" x2="657.8125" y1="143.75" y2="143.75" /><text fill="#000000" font-family="sans-serif" font-size="43.75" font-style="italic" lengthAdjust="spacingAndGlyphs" textLength="531.25" x="110.9375" y="201.6663">#factoryMethod() : Product</text><text fill="#000000" font-family="sans-serif" font-size="43.75" lengthAdjust="spacingAndGlyphs" textLength="303.125" x="110.9375" y="256.6956">+anOperation()</text>
        <!--class ConcreteCreator-->
        <rect fill="#FFFFFF" height="198.7793" id="ConcreteCreator" style="stroke: #000000; stroke-width: 3.125;" width="565.625" x="18.75" y="468.75" />
        <rect fill="#FFFFFF" height="93.75" style="stroke: #000000; stroke-width: 3.125;" width="565.625" x="18.75" y="468.75" />
        <ellipse cx="125.7813" cy="515.625" fill="#ADD1B2" rx="31.25" ry="31.25" style="stroke: #000000; stroke-width: 3.125;" />
        <path d="M136.9141,519.6289 Q136.4258,527.3438 133.6914,530.0781 Q131.2988,532.4707 128.0273,532.4707 Q124.8047,532.4707 122.4121,530.0781 Q118.1152,525.7813 118.1152,516.748 Q118.1152,506.1523 122.7539,501.5137 Q125.1465,499.1211 128.2227,499.1211 Q131.4453,499.1211 133.3496,501.0254 Q136.9141,504.5898 136.7676,510.7422 L133.0078,510.7422 Q132.8125,505.2734 130.957,503.418 Q129.9316,502.3926 128.2227,502.3926 Q126.6602,502.3926 125.4883,503.5645 Q122.0703,506.9824 122.0703,516.4063 Q122.0703,524.6094 124.9512,527.4902 Q126.3184,528.8574 128.0273,528.8574 Q129.5898,528.8574 130.957,527.4902 Q132.666,525.7813 132.8125,519.6289 L136.9141,519.6289 Z " /><text fill="#000000" font-family="sans-serif" font-size="43.75" lengthAdjust="spacingAndGlyphs" textLength="331.25" x="180.4688" y="533.5266">ConcreteCreator</text>
        <line style="stroke: #000000; stroke-width: 3.125;" x1="21.875" x2="581.25" y1="562.5" y2="562.5" />
        <line style="stroke: #000000; stroke-width: 3.125;" x1="21.875" x2="581.25" y1="587.5" y2="587.5" /><text fill="#000000" font-family="sans-serif" font-size="43.75" lengthAdjust="spacingAndGlyphs" textLength="528.125" x="37.5" y="645.4163">+factoryMethod() : Product</text>
        <!--class Product-->
        <rect fill="#FFFFFF" height="143.75" id="Product" style="stroke: #000000; stroke-width: 3.125;" width="246.875" x="859.375" y="79.6875" />
        <rect fill="#FFFFFF" height="93.75" style="stroke: #000000; stroke-width: 3.125;" width="246.875" x="859.375" y="79.6875" />
        <ellipse cx="903.125" cy="126.5625" fill="#A9DCDF" rx="31.25" ry="31.25" style="stroke: #000000; stroke-width: 3.125;" />
        <path d="M900.0977,142.627 L895.9961,142.627 L904.541,109.2773 L907.959,109.2773 L916.5039,142.627 L912.4023,142.627 L910.0098,132.8613 L902.4902,132.8613 L900.0977,142.627 Z M906.4453,118.3594 L906.1035,118.3594 L903.3691,129.6387 L909.1797,129.6387 L906.4453,118.3594 Z " /><text fill="#000000" font-family="sans-serif" font-size="43.75" font-style="italic" lengthAdjust="spacingAndGlyphs" textLength="153.125" x="943.75" y="144.4641">Product</text>
        <line style="stroke: #000000; stroke-width: 3.125;" x1="862.5" x2="1103.125" y1="173.4375" y2="173.4375" />
        <line style="stroke: #000000; stroke-width: 3.125;" x1="862.5" x2="1103.125" y1="198.4375" y2="198.4375" />
        <!--class ConcreteProduct-->
        <rect fill="#FFFFFF" height="143.75" id="ConcreteProduct" style="stroke: #000000; stroke-width: 3.125;" width="428.125" x="793.75" y="496.875" />
        <rect fill="#FFFFFF" height="93.75" style="stroke: #000000; stroke-width: 3.125;" width="428.125" x="793.75" y="496.875" />
        <ellipse cx="837.5" cy="543.75" fill="#ADD1B2" rx="31.25" ry="31.25" style="stroke: #000000; stroke-width: 3.125;" />
        <path d="M848.6328,547.7539 Q848.1445,555.4688 845.4102,558.2031 Q843.0176,560.5957 839.7461,560.5957 Q836.5234,560.5957 834.1309,558.2031 Q829.834,553.9063 829.834,544.873 Q829.834,534.2773 834.4727,529.6387 Q836.8652,527.2461 839.9414,527.2461 Q843.1641,527.2461 845.0684,529.1504 Q848.6328,532.7148 848.4863,538.8672 L844.7266,538.8672 Q844.5313,533.3984 842.6758,531.543 Q841.6504,530.5176 839.9414,530.5176 Q838.3789,530.5176 837.207,531.6895 Q833.7891,535.1074 833.7891,544.5313 Q833.7891,552.7344 836.6699,555.6152 Q838.0371,556.9824 839.7461,556.9824 Q841.3086,556.9824 842.6758,555.6152 Q844.3848,553.9063 844.5313,547.7539 L848.6328,547.7539 Z " /><text fill="#000000" font-family="sans-serif" font-size="43.75" lengthAdjust="spacingAndGlyphs" textLength="334.375" x="878.125" y="561.6516">ConcreteProduct</text>
        <line style="stroke: #000000; stroke-width: 3.125;" x1="796.875" x2="1218.75" y1="590.625" y2="590.625" />
        <line style="stroke: #000000; stroke-width: 3.125;" x1="796.875" x2="1218.75" y1="615.625" y2="615.625" />
        <!--link Creator to ConcreteCreator-->
        <path d="M342.5031,341.3031 C334.5375,384.9528 326.3616,429.7475 319.4316,467.7172 " fill="none" id="Creator-ConcreteCreator" style="stroke: #000000; stroke-width: 3.125;" />
        <polygon fill="none" points="321.1153,336.6531,353.8563,279.0969,364.1531,344.5094,321.1153,336.6531" style="stroke: #000000; stroke-width: 3.125;" />
        <!--link Product to ConcreteProduct-->
        <path d="M990.825,286.3844 C995.0781,356.3016 1000.1312,439.3625 1003.6156,496.6188 " fill="none" id="Product-ConcreteProduct" style="stroke: #000000; stroke-width: 3.125;" />
        <polygon fill="none" points="968.9594,287.1813,986.9969,223.4687,1012.6281,284.525,968.9594,287.1813" style="stroke: #000000; stroke-width: 3.125;" />
        <!--link Creator to Product-->
        <path d="M661.05,151.5625 C724.0594,151.5625 788.1438,151.5625 842.3656,151.5625 " fill="none" id="Creator-Product" style="stroke: #000000; stroke-width: 3.125; stroke-dasharray: 7.0,7.0;" />
        <polygon fill="#000000" points="858.8625,151.5625,830.7375,139.0625,843.2375,151.5625,830.7375,164.0625,858.8625,151.5625" style="stroke: #000000; stroke-width: 3.125;" /><text fill="#000000" font-family="sans-serif" font-size="31.25" lengthAdjust="spacingAndGlyphs" textLength="50" x="735.1563" y="134.0027">use</text>
        <!--link ConcreteCreator to ConcreteProduct-->
        <path d="M584.7531,568.75 C648.5156,568.75 715.4469,568.75 776.775,568.75 " fill="none" id="ConcreteCreator-ConcreteProduct" style="stroke: #000000; stroke-width: 3.125; stroke-dasharray: 7.0,7.0;" />
        <polygon fill="#000000" points="793.075,568.75,764.95,556.25,777.45,568.75,764.95,581.25,793.075,568.75" style="stroke: #000000; stroke-width: 3.125;" /><text fill="#000000" font-family="sans-serif" font-size="31.25" lengthAdjust="spacingAndGlyphs" textLength="93.75" x="642.1875" y="551.1902">create</text>
        <!--
@startuml

skinparam shadowing false

skinparam dpi 300

skinparam default{
  FontColor Black
  FontName sans-serif
  FontSize 14
  FontStyle normal
  MonospacedFontName monospace
  TextAlign left
}

skinparam note {
  BackgroundColor LemonChiffon
  BorderColor Black
  BorderThickness 1
  FontColor Black
  FontName sans-serif
  FontSize 10
  FontStyle normal
}

skinparam actor {
  BackgroundColor WhiteSmoke
  BorderColor Black
  FontColor Black
  FontName sans-serif
  FontSize 14
  FontStyle normal
  StereotypeFontColor Black
  StereotypeFontName monospace
  StereotypeFontSize 10
  StereotypeFontStyle normal
}

skinparam boundary {
  BackgroundColor WhiteSmoke
  BorderColor Black
  FontColor Black
  FontName sans-serif
  FontSize 14
  FontStyle normal
  StereotypeFontColor Black
  StereotypeFontName monospace
  StereotypeFontSize 10
  StereotypeFontStyle normal
}

skinparam control {
  BackgroundColor WhiteSmoke
  BorderColor Black
  FontColor Black
  FontName sans-serif
  FontSize 14
  FontStyle normal
  StereotypeFontColor Black
  StereotypeFontName monospace
  StereotypeFontSize 10
  StereotypeFontStyle normal
}

skinparam entity {
  BackgroundColor WhiteSmoke
  BorderColor Black
  FontColor Black
  FontName sans-serif
  FontSize 14
  FontStyle normal
  StereotypeFontColor Black
  StereotypeFontName monospace
  StereotypeFontSize 10
  StereotypeFontStyle normal
}

skinparam database {
  BackgroundColor WhiteSmoke
  BorderColor Black
  FontColor Black
  FontName sans-serif
  FontSize 14
  FontStyle normal
  StereotypeFontColor Black
  StereotypeFontName monospace
  StereotypeFontSize 10
  StereotypeFontStyle normal
}

skinparam participant {
  BackgroundColor WhiteSmoke
  BorderColor Black
  FontColor Black
  FontName sans-serif
  FontSize 14
  FontStyle normal
}

skinparam sequence {
  LifeLineBackgroundColor White
  LifeLineBorderColor Black
  LifeLineBorderThickness 1

  ArrowColor Black
  ArrowFontName sans-serif
  ArrowFontColor Black
  ArrowFontSize 10
  ArrowFontStyle normal
  ArrowThickness 1
  MessageAlign center

  GroupBackgroundColor WhiteSmoke
  GroupBodyBackgroundColor White
  GroupBorderColor Black
  GroupBorderThickness 1
  GroupFontColor Black
  GroupFontName sans-serif
  GroupFontSize 10
  GroupFontStyle normal
  GroupHeaderFontColor Black
  GroupHeaderFontName sans-serif
  GroupHeaderFontSize 10
  GroupHeaderFontStyle normal

  ReferenceBackgroundColor White
  ReferenceBorderColor Black
  ReferenceBorderThickness 1
  ReferenceFontColor Black
  ReferenceFontName sans-serif
  ReferenceFontSize 10
  ReferenceFontStyle normal
  ReferenceHeaderBackgroundColor WhiteSmoke

  ActorBorderThickness 1.5
  ParticipantBorderThickness 1.5
}

skinparam class {
  FontColor Black
  FontName sans-serif
  FontSize 14
  FontStyle normal

  BackgroundColor White
  HeaderBackgroundColor White
  BorderColor Black
  BorderThickness 1

  ArrowColor Black
  ArrowFontName sans-serif
  ArrowFontColor Black
  ArrowFontSize 10
  ArrowFontStyle normal
  ArrowThickness 1
  MessageAlign center

  StereotypeFontColor black
  StereotypeFontSize 10

  AttributeFontColor black
  AttributeIconSize 0

}

class Creator {
  {abstract} # factoryMethod() : Product
  + anOperation()
}
class ConcreteCreator {
  + factoryMethod() : Product
}
abstract class Product {
}
class ConcreteProduct {
}

ConcreteCreator -up-|> Creator
ConcreteProduct -up-|> Product
Creator .right.> Product : "use"
ConcreteCreator .right.> ConcreteProduct : "create"

@enduml

PlantUML version 1.2018.14(Sat Dec 22 01:33:16 JST 2018)
(GPL source distribution)
Java Runtime: OpenJDK Runtime Environment
JVM: OpenJDK 64-Bit Server VM
Java Version: 11.0.1+13
Operating System: Windows 7
OS Version: 6.1
Default Encoding: MS932
Language: ja
Country: JP
-->
    </g>
</svg>