<?xml version="1.0" encoding="UTF-8" standalone="no"?><svg xmlns="http://www.w3.org/2000/svg" xmlns:xlink="http://www.w3.org/1999/xlink" contentScriptType="application/ecmascript" contentStyleType="text/css" height="578.125px" preserveAspectRatio="none" style="width:2165px;height:578px;" version="1.1" viewBox="0 0 2165 578" width="2165.625px" zoomAndPan="magnify">
    <defs />
    <g>
        <!--class Class01-->
        <rect fill="#FFFFFF" height="143.75" id="Class01" style="stroke: #000000; stroke-width: 3.125;" width="253.125" x="18.75" y="25" />
        <rect fill="#FFFFFF" height="93.75" style="stroke: #000000; stroke-width: 3.125;" width="253.125" x="18.75" y="25" />
        <ellipse cx="62.5" cy="71.875" fill="#ADD1B2" rx="31.25" ry="31.25" style="stroke: #000000; stroke-width: 3.125;" />
        <path d="M73.6328,75.8789 Q73.1445,83.5938 70.4102,86.3281 Q68.0176,88.7207 64.7461,88.7207 Q61.5234,88.7207 59.1309,86.3281 Q54.834,82.0313 54.834,72.998 Q54.834,62.4023 59.4727,57.7637 Q61.8652,55.3711 64.9414,55.3711 Q68.1641,55.3711 70.0684,57.2754 Q73.6328,60.8398 73.4863,66.9922 L69.7266,66.9922 Q69.5313,61.5234 67.6758,59.668 Q66.6504,58.6426 64.9414,58.6426 Q63.3789,58.6426 62.207,59.8145 Q58.7891,63.2324 58.7891,72.6563 Q58.7891,80.8594 61.6699,83.7402 Q63.0371,85.1074 64.7461,85.1074 Q66.3086,85.1074 67.6758,83.7402 Q69.3848,82.0313 69.5313,75.8789 L73.6328,75.8789 Z " /><text fill="#000000" font-family="sans-serif" font-size="43.75" lengthAdjust="spacingAndGlyphs" textLength="159.375" x="103.125" y="89.7766">Class01</text>
        <line style="stroke: #000000; stroke-width: 3.125;" x1="21.875" x2="268.75" y1="118.75" y2="118.75" />
        <line style="stroke: #000000; stroke-width: 3.125;" x1="21.875" x2="268.75" y1="143.75" y2="143.75" />
        <!--class Class02-->
        <rect fill="#FFFFFF" height="143.75" id="Class02" style="stroke: #000000; stroke-width: 3.125;" width="253.125" x="18.75" y="400" />
        <rect fill="#FFFFFF" height="93.75" style="stroke: #000000; stroke-width: 3.125;" width="253.125" x="18.75" y="400" />
        <ellipse cx="62.5" cy="446.875" fill="#ADD1B2" rx="31.25" ry="31.25" style="stroke: #000000; stroke-width: 3.125;" />
        <path d="M73.6328,450.8789 Q73.1445,458.5938 70.4102,461.3281 Q68.0176,463.7207 64.7461,463.7207 Q61.5234,463.7207 59.1309,461.3281 Q54.834,457.0313 54.834,447.998 Q54.834,437.4023 59.4727,432.7637 Q61.8652,430.3711 64.9414,430.3711 Q68.1641,430.3711 70.0684,432.2754 Q73.6328,435.8398 73.4863,441.9922 L69.7266,441.9922 Q69.5313,436.5234 67.6758,434.668 Q66.6504,433.6426 64.9414,433.6426 Q63.3789,433.6426 62.207,434.8145 Q58.7891,438.2324 58.7891,447.6563 Q58.7891,455.8594 61.6699,458.7402 Q63.0371,460.1074 64.7461,460.1074 Q66.3086,460.1074 67.6758,458.7402 Q69.3848,457.0313 69.5313,450.8789 L73.6328,450.8789 Z " /><text fill="#000000" font-family="sans-serif" font-size="43.75" lengthAdjust="spacingAndGlyphs" textLength="159.375" x="103.125" y="464.7766">Class02</text>
        <line style="stroke: #000000; stroke-width: 3.125;" x1="21.875" x2="268.75" y1="493.75" y2="493.75" />
        <line style="stroke: #000000; stroke-width: 3.125;" x1="21.875" x2="268.75" y1="518.75" y2="518.75" />
        <!--class Class03-->
        <rect fill="#FFFFFF" height="143.75" id="Class03" style="stroke: #000000; stroke-width: 3.125;" width="253.125" x="381.25" y="25" />
        <rect fill="#FFFFFF" height="93.75" style="stroke: #000000; stroke-width: 3.125;" width="253.125" x="381.25" y="25" />
        <ellipse cx="425" cy="71.875" fill="#ADD1B2" rx="31.25" ry="31.25" style="stroke: #000000; stroke-width: 3.125;" />
        <path d="M436.1328,75.8789 Q435.6445,83.5938 432.9102,86.3281 Q430.5176,88.7207 427.2461,88.7207 Q424.0234,88.7207 421.6309,86.3281 Q417.334,82.0313 417.334,72.998 Q417.334,62.4023 421.9727,57.7637 Q424.3652,55.3711 427.4414,55.3711 Q430.6641,55.3711 432.5684,57.2754 Q436.1328,60.8398 435.9863,66.9922 L432.2266,66.9922 Q432.0313,61.5234 430.1758,59.668 Q429.1504,58.6426 427.4414,58.6426 Q425.8789,58.6426 424.707,59.8145 Q421.2891,63.2324 421.2891,72.6563 Q421.2891,80.8594 424.1699,83.7402 Q425.5371,85.1074 427.2461,85.1074 Q428.8086,85.1074 430.1758,83.7402 Q431.8848,82.0313 432.0313,75.8789 L436.1328,75.8789 Z " /><text fill="#000000" font-family="sans-serif" font-size="43.75" lengthAdjust="spacingAndGlyphs" textLength="159.375" x="465.625" y="89.7766">Class03</text>
        <line style="stroke: #000000; stroke-width: 3.125;" x1="384.375" x2="631.25" y1="118.75" y2="118.75" />
        <line style="stroke: #000000; stroke-width: 3.125;" x1="384.375" x2="631.25" y1="143.75" y2="143.75" />
        <!--class Class04-->
        <rect fill="#FFFFFF" height="143.75" id="Class04" style="stroke: #000000; stroke-width: 3.125;" width="253.125" x="381.25" y="400" />
        <rect fill="#FFFFFF" height="93.75" style="stroke: #000000; stroke-width: 3.125;" width="253.125" x="381.25" y="400" />
        <ellipse cx="425" cy="446.875" fill="#ADD1B2" rx="31.25" ry="31.25" style="stroke: #000000; stroke-width: 3.125;" />
        <path d="M436.1328,450.8789 Q435.6445,458.5938 432.9102,461.3281 Q430.5176,463.7207 427.2461,463.7207 Q424.0234,463.7207 421.6309,461.3281 Q417.334,457.0313 417.334,447.998 Q417.334,437.4023 421.9727,432.7637 Q424.3652,430.3711 427.4414,430.3711 Q430.6641,430.3711 432.5684,432.2754 Q436.1328,435.8398 435.9863,441.9922 L432.2266,441.9922 Q432.0313,436.5234 430.1758,434.668 Q429.1504,433.6426 427.4414,433.6426 Q425.8789,433.6426 424.707,434.8145 Q421.2891,438.2324 421.2891,447.6563 Q421.2891,455.8594 424.1699,458.7402 Q425.5371,460.1074 427.2461,460.1074 Q428.8086,460.1074 430.1758,458.7402 Q431.8848,457.0313 432.0313,450.8789 L436.1328,450.8789 Z " /><text fill="#000000" font-family="sans-serif" font-size="43.75" lengthAdjust="spacingAndGlyphs" textLength="159.375" x="465.625" y="464.7766">Class04</text>
        <line style="stroke: #000000; stroke-width: 3.125;" x1="384.375" x2="631.25" y1="493.75" y2="493.75" />
        <line style="stroke: #000000; stroke-width: 3.125;" x1="384.375" x2="631.25" y1="518.75" y2="518.75" />
        <!--class Class05-->
        <rect fill="#FFFFFF" height="143.75" id="Class05" style="stroke: #000000; stroke-width: 3.125;" width="253.125" x="743.75" y="25" />
        <rect fill="#FFFFFF" height="93.75" style="stroke: #000000; stroke-width: 3.125;" width="253.125" x="743.75" y="25" />
        <ellipse cx="787.5" cy="71.875" fill="#ADD1B2" rx="31.25" ry="31.25" style="stroke: #000000; stroke-width: 3.125;" />
        <path d="M798.6328,75.8789 Q798.1445,83.5938 795.4102,86.3281 Q793.0176,88.7207 789.7461,88.7207 Q786.5234,88.7207 784.1309,86.3281 Q779.834,82.0313 779.834,72.998 Q779.834,62.4023 784.4727,57.7637 Q786.8652,55.3711 789.9414,55.3711 Q793.1641,55.3711 795.0684,57.2754 Q798.6328,60.8398 798.4863,66.9922 L794.7266,66.9922 Q794.5313,61.5234 792.6758,59.668 Q791.6504,58.6426 789.9414,58.6426 Q788.3789,58.6426 787.207,59.8145 Q783.7891,63.2324 783.7891,72.6563 Q783.7891,80.8594 786.6699,83.7402 Q788.0371,85.1074 789.7461,85.1074 Q791.3086,85.1074 792.6758,83.7402 Q794.3848,82.0313 794.5313,75.8789 L798.6328,75.8789 Z " /><text fill="#000000" font-family="sans-serif" font-size="43.75" lengthAdjust="spacingAndGlyphs" textLength="159.375" x="828.125" y="89.7766">Class05</text>
        <line style="stroke: #000000; stroke-width: 3.125;" x1="746.875" x2="993.75" y1="118.75" y2="118.75" />
        <line style="stroke: #000000; stroke-width: 3.125;" x1="746.875" x2="993.75" y1="143.75" y2="143.75" />
        <!--class Class06-->
        <rect fill="#FFFFFF" height="143.75" id="Class06" style="stroke: #000000; stroke-width: 3.125;" width="253.125" x="743.75" y="400" />
        <rect fill="#FFFFFF" height="93.75" style="stroke: #000000; stroke-width: 3.125;" width="253.125" x="743.75" y="400" />
        <ellipse cx="787.5" cy="446.875" fill="#ADD1B2" rx="31.25" ry="31.25" style="stroke: #000000; stroke-width: 3.125;" />
        <path d="M798.6328,450.8789 Q798.1445,458.5938 795.4102,461.3281 Q793.0176,463.7207 789.7461,463.7207 Q786.5234,463.7207 784.1309,461.3281 Q779.834,457.0313 779.834,447.998 Q779.834,437.4023 784.4727,432.7637 Q786.8652,430.3711 789.9414,430.3711 Q793.1641,430.3711 795.0684,432.2754 Q798.6328,435.8398 798.4863,441.9922 L794.7266,441.9922 Q794.5313,436.5234 792.6758,434.668 Q791.6504,433.6426 789.9414,433.6426 Q788.3789,433.6426 787.207,434.8145 Q783.7891,438.2324 783.7891,447.6563 Q783.7891,455.8594 786.6699,458.7402 Q788.0371,460.1074 789.7461,460.1074 Q791.3086,460.1074 792.6758,458.7402 Q794.3848,457.0313 794.5313,450.8789 L798.6328,450.8789 Z " /><text fill="#000000" font-family="sans-serif" font-size="43.75" lengthAdjust="spacingAndGlyphs" textLength="159.375" x="828.125" y="464.7766">Class06</text>
        <line style="stroke: #000000; stroke-width: 3.125;" x1="746.875" x2="993.75" y1="493.75" y2="493.75" />
        <line style="stroke: #000000; stroke-width: 3.125;" x1="746.875" x2="993.75" y1="518.75" y2="518.75" />
        <!--class Class07-->
        <rect fill="#FFFFFF" height="143.75" id="Class07" style="stroke: #000000; stroke-width: 3.125;" width="253.125" x="1106.25" y="25" />
        <rect fill="#FFFFFF" height="93.75" style="stroke: #000000; stroke-width: 3.125;" width="253.125" x="1106.25" y="25" />
        <ellipse cx="1150" cy="71.875" fill="#ADD1B2" rx="31.25" ry="31.25" style="stroke: #000000; stroke-width: 3.125;" />
        <path d="M1161.1328,75.8789 Q1160.6445,83.5938 1157.9102,86.3281 Q1155.5176,88.7207 1152.2461,88.7207 Q1149.0234,88.7207 1146.6309,86.3281 Q1142.334,82.0313 1142.334,72.998 Q1142.334,62.4023 1146.9727,57.7637 Q1149.3652,55.3711 1152.4414,55.3711 Q1155.6641,55.3711 1157.5684,57.2754 Q1161.1328,60.8398 1160.9863,66.9922 L1157.2266,66.9922 Q1157.0313,61.5234 1155.1758,59.668 Q1154.1504,58.6426 1152.4414,58.6426 Q1150.8789,58.6426 1149.707,59.8145 Q1146.2891,63.2324 1146.2891,72.6563 Q1146.2891,80.8594 1149.1699,83.7402 Q1150.5371,85.1074 1152.2461,85.1074 Q1153.8086,85.1074 1155.1758,83.7402 Q1156.8848,82.0313 1157.0313,75.8789 L1161.1328,75.8789 Z " /><text fill="#000000" font-family="sans-serif" font-size="43.75" lengthAdjust="spacingAndGlyphs" textLength="159.375" x="1190.625" y="89.7766">Class07</text>
        <line style="stroke: #000000; stroke-width: 3.125;" x1="1109.375" x2="1356.25" y1="118.75" y2="118.75" />
        <line style="stroke: #000000; stroke-width: 3.125;" x1="1109.375" x2="1356.25" y1="143.75" y2="143.75" />
        <!--class Class08-->
        <rect fill="#FFFFFF" height="143.75" id="Class08" style="stroke: #000000; stroke-width: 3.125;" width="253.125" x="1106.25" y="400" />
        <rect fill="#FFFFFF" height="93.75" style="stroke: #000000; stroke-width: 3.125;" width="253.125" x="1106.25" y="400" />
        <ellipse cx="1150" cy="446.875" fill="#ADD1B2" rx="31.25" ry="31.25" style="stroke: #000000; stroke-width: 3.125;" />
        <path d="M1161.1328,450.8789 Q1160.6445,458.5938 1157.9102,461.3281 Q1155.5176,463.7207 1152.2461,463.7207 Q1149.0234,463.7207 1146.6309,461.3281 Q1142.334,457.0313 1142.334,447.998 Q1142.334,437.4023 1146.9727,432.7637 Q1149.3652,430.3711 1152.4414,430.3711 Q1155.6641,430.3711 1157.5684,432.2754 Q1161.1328,435.8398 1160.9863,441.9922 L1157.2266,441.9922 Q1157.0313,436.5234 1155.1758,434.668 Q1154.1504,433.6426 1152.4414,433.6426 Q1150.8789,433.6426 1149.707,434.8145 Q1146.2891,438.2324 1146.2891,447.6563 Q1146.2891,455.8594 1149.1699,458.7402 Q1150.5371,460.1074 1152.2461,460.1074 Q1153.8086,460.1074 1155.1758,458.7402 Q1156.8848,457.0313 1157.0313,450.8789 L1161.1328,450.8789 Z " /><text fill="#000000" font-family="sans-serif" font-size="43.75" lengthAdjust="spacingAndGlyphs" textLength="159.375" x="1190.625" y="464.7766">Class08</text>
        <line style="stroke: #000000; stroke-width: 3.125;" x1="1109.375" x2="1356.25" y1="493.75" y2="493.75" />
        <line style="stroke: #000000; stroke-width: 3.125;" x1="1109.375" x2="1356.25" y1="518.75" y2="518.75" />
        <!--class Class09-->
        <rect fill="#FFFFFF" height="143.75" id="Class09" style="stroke: #000000; stroke-width: 3.125;" width="253.125" x="1468.75" y="25" />
        <rect fill="#FFFFFF" height="93.75" style="stroke: #000000; stroke-width: 3.125;" width="253.125" x="1468.75" y="25" />
        <ellipse cx="1512.5" cy="71.875" fill="#ADD1B2" rx="31.25" ry="31.25" style="stroke: #000000; stroke-width: 3.125;" />
        <path d="M1523.6328,75.8789 Q1523.1445,83.5938 1520.4102,86.3281 Q1518.0176,88.7207 1514.7461,88.7207 Q1511.5234,88.7207 1509.1309,86.3281 Q1504.834,82.0313 1504.834,72.998 Q1504.834,62.4023 1509.4727,57.7637 Q1511.8652,55.3711 1514.9414,55.3711 Q1518.1641,55.3711 1520.0684,57.2754 Q1523.6328,60.8398 1523.4863,66.9922 L1519.7266,66.9922 Q1519.5313,61.5234 1517.6758,59.668 Q1516.6504,58.6426 1514.9414,58.6426 Q1513.3789,58.6426 1512.207,59.8145 Q1508.7891,63.2324 1508.7891,72.6563 Q1508.7891,80.8594 1511.6699,83.7402 Q1513.0371,85.1074 1514.7461,85.1074 Q1516.3086,85.1074 1517.6758,83.7402 Q1519.3848,82.0313 1519.5313,75.8789 L1523.6328,75.8789 Z " /><text fill="#000000" font-family="sans-serif" font-size="43.75" lengthAdjust="spacingAndGlyphs" textLength="159.375" x="1553.125" y="89.7766">Class09</text>
        <line style="stroke: #000000; stroke-width: 3.125;" x1="1471.875" x2="1718.75" y1="118.75" y2="118.75" />
        <line style="stroke: #000000; stroke-width: 3.125;" x1="1471.875" x2="1718.75" y1="143.75" y2="143.75" />
        <!--class Class10-->
        <rect fill="#FFFFFF" height="143.75" id="Class10" style="stroke: #000000; stroke-width: 3.125;" width="253.125" x="1468.75" y="400" />
        <rect fill="#FFFFFF" height="93.75" style="stroke: #000000; stroke-width: 3.125;" width="253.125" x="1468.75" y="400" />
        <ellipse cx="1512.5" cy="446.875" fill="#ADD1B2" rx="31.25" ry="31.25" style="stroke: #000000; stroke-width: 3.125;" />
        <path d="M1523.6328,450.8789 Q1523.1445,458.5938 1520.4102,461.3281 Q1518.0176,463.7207 1514.7461,463.7207 Q1511.5234,463.7207 1509.1309,461.3281 Q1504.834,457.0313 1504.834,447.998 Q1504.834,437.4023 1509.4727,432.7637 Q1511.8652,430.3711 1514.9414,430.3711 Q1518.1641,430.3711 1520.0684,432.2754 Q1523.6328,435.8398 1523.4863,441.9922 L1519.7266,441.9922 Q1519.5313,436.5234 1517.6758,434.668 Q1516.6504,433.6426 1514.9414,433.6426 Q1513.3789,433.6426 1512.207,434.8145 Q1508.7891,438.2324 1508.7891,447.6563 Q1508.7891,455.8594 1511.6699,458.7402 Q1513.0371,460.1074 1514.7461,460.1074 Q1516.3086,460.1074 1517.6758,458.7402 Q1519.3848,457.0313 1519.5313,450.8789 L1523.6328,450.8789 Z " /><text fill="#000000" font-family="sans-serif" font-size="43.75" lengthAdjust="spacingAndGlyphs" textLength="159.375" x="1553.125" y="464.7766">Class10</text>
        <line style="stroke: #000000; stroke-width: 3.125;" x1="1471.875" x2="1718.75" y1="493.75" y2="493.75" />
        <line style="stroke: #000000; stroke-width: 3.125;" x1="1471.875" x2="1718.75" y1="518.75" y2="518.75" />
        <!--class Class11-->
        <rect fill="#FFFFFF" height="143.75" id="Class11" style="stroke: #000000; stroke-width: 3.125;" width="253.125" x="1831.25" y="25" />
        <rect fill="#FFFFFF" height="93.75" style="stroke: #000000; stroke-width: 3.125;" width="253.125" x="1831.25" y="25" />
        <ellipse cx="1875" cy="71.875" fill="#ADD1B2" rx="31.25" ry="31.25" style="stroke: #000000; stroke-width: 3.125;" />
        <path d="M1886.1328,75.8789 Q1885.6445,83.5938 1882.9102,86.3281 Q1880.5176,88.7207 1877.2461,88.7207 Q1874.0234,88.7207 1871.6309,86.3281 Q1867.334,82.0313 1867.334,72.998 Q1867.334,62.4023 1871.9727,57.7637 Q1874.3652,55.3711 1877.4414,55.3711 Q1880.6641,55.3711 1882.5684,57.2754 Q1886.1328,60.8398 1885.9863,66.9922 L1882.2266,66.9922 Q1882.0313,61.5234 1880.1758,59.668 Q1879.1504,58.6426 1877.4414,58.6426 Q1875.8789,58.6426 1874.707,59.8145 Q1871.2891,63.2324 1871.2891,72.6563 Q1871.2891,80.8594 1874.1699,83.7402 Q1875.5371,85.1074 1877.2461,85.1074 Q1878.8086,85.1074 1880.1758,83.7402 Q1881.8848,82.0313 1882.0313,75.8789 L1886.1328,75.8789 Z " /><text fill="#000000" font-family="sans-serif" font-size="43.75" lengthAdjust="spacingAndGlyphs" textLength="159.375" x="1915.625" y="89.7766">Class11</text>
        <line style="stroke: #000000; stroke-width: 3.125;" x1="1834.375" x2="2081.25" y1="118.75" y2="118.75" />
        <line style="stroke: #000000; stroke-width: 3.125;" x1="1834.375" x2="2081.25" y1="143.75" y2="143.75" />
        <!--class Class12-->
        <rect fill="#FFFFFF" height="143.75" id="Class12" style="stroke: #000000; stroke-width: 3.125;" width="253.125" x="1831.25" y="400" />
        <rect fill="#FFFFFF" height="93.75" style="stroke: #000000; stroke-width: 3.125;" width="253.125" x="1831.25" y="400" />
        <ellipse cx="1875" cy="446.875" fill="#ADD1B2" rx="31.25" ry="31.25" style="stroke: #000000; stroke-width: 3.125;" />
        <path d="M1886.1328,450.8789 Q1885.6445,458.5938 1882.9102,461.3281 Q1880.5176,463.7207 1877.2461,463.7207 Q1874.0234,463.7207 1871.6309,461.3281 Q1867.334,457.0313 1867.334,447.998 Q1867.334,437.4023 1871.9727,432.7637 Q1874.3652,430.3711 1877.4414,430.3711 Q1880.6641,430.3711 1882.5684,432.2754 Q1886.1328,435.8398 1885.9863,441.9922 L1882.2266,441.9922 Q1882.0313,436.5234 1880.1758,434.668 Q1879.1504,433.6426 1877.4414,433.6426 Q1875.8789,433.6426 1874.707,434.8145 Q1871.2891,438.2324 1871.2891,447.6563 Q1871.2891,455.8594 1874.1699,458.7402 Q1875.5371,460.1074 1877.2461,460.1074 Q1878.8086,460.1074 1880.1758,458.7402 Q1881.8848,457.0313 1882.0313,450.8789 L1886.1328,450.8789 Z " /><text fill="#000000" font-family="sans-serif" font-size="43.75" lengthAdjust="spacingAndGlyphs" textLength="159.375" x="1915.625" y="464.7766">Class12</text>
        <line style="stroke: #000000; stroke-width: 3.125;" x1="1834.375" x2="2081.25" y1="493.75" y2="493.75" />
        <line style="stroke: #000000; stroke-width: 3.125;" x1="1834.375" x2="2081.25" y1="518.75" y2="518.75" />
        <!--link Class01 to Class02-->
        <path d="M145.3125,232.2084 C145.3125,288.8497 145.3125,352.6484 145.3125,399.7019 " fill="none" id="Class01-Class02" style="stroke: #000000; stroke-width: 3.125;" />
        <polygon fill="none" points="123.4378,231.8591,145.3125,169.3594,167.1878,231.8591,123.4378,231.8591" style="stroke: #000000; stroke-width: 3.125;" /><text fill="#000000" font-family="sans-serif" font-size="31.25" lengthAdjust="spacingAndGlyphs" textLength="218.75" x="148.4375" y="298.0652">Generalization</text>
        <!--link Class03 to Class04-->
        <path d="M507.8125,210.3469 C507.8125,271.8275 507.8125,346.4772 507.8125,399.7019 " fill="none" id="Class03-Class04" style="stroke: #000000; stroke-width: 3.125;" />
        <polygon fill="#000000" points="507.8125,169.3594,495.3125,188.1094,507.8125,206.8594,520.3125,188.1094,507.8125,169.3594" style="stroke: #000000; stroke-width: 3.125;" /><text fill="#000000" font-family="sans-serif" font-size="31.25" lengthAdjust="spacingAndGlyphs" textLength="184.375" x="510.9375" y="298.0652">Composition</text>
        <!--link Class05 to Class06-->
        <path d="M870.3125,210.3469 C870.3125,271.8275 870.3125,346.4772 870.3125,399.7019 " fill="none" id="Class05-Class06" style="stroke: #000000; stroke-width: 3.125;" />
        <polygon fill="#FFFFFF" points="870.3125,169.3594,857.8125,188.1094,870.3125,206.8594,882.8125,188.1094,870.3125,169.3594" style="stroke: #000000; stroke-width: 3.125;" /><text fill="#000000" font-family="sans-serif" font-size="31.25" lengthAdjust="spacingAndGlyphs" textLength="181.25" x="873.4375" y="298.0652">Aggregation</text>
        <!--link Class07 to Class08-->
        <path d="M1232.8125,185.3781 C1232.8125,250.4909 1232.8125,339.0206 1232.8125,399.7019 " fill="none" id="Class07-Class08" style="stroke: #000000; stroke-width: 3.125; stroke-dasharray: 7.0,7.0;" />
        <polygon fill="#000000" points="1232.8125,169.3594,1220.3125,197.4844,1232.8125,184.9844,1245.3125,197.4844,1232.8125,169.3594" style="stroke: #000000; stroke-width: 3.125;" /><text fill="#000000" font-family="sans-serif" font-size="31.25" lengthAdjust="spacingAndGlyphs" textLength="187.5" x="1235.9375" y="298.0652">Dependency</text>
        <!--link Class09 to Class10-->
        <path d="M1595.3125,232.2084 C1595.3125,288.8497 1595.3125,352.6484 1595.3125,399.7019 " fill="none" id="Class09-Class10" style="stroke: #000000; stroke-width: 3.125; stroke-dasharray: 7.0,7.0;" />
        <polygon fill="none" points="1573.4375,231.8591,1595.3125,169.3594,1617.1875,231.8591,1573.4375,231.8591" style="stroke: #000000; stroke-width: 3.125;" /><text fill="#000000" font-family="sans-serif" font-size="31.25" lengthAdjust="spacingAndGlyphs" textLength="168.75" x="1598.4375" y="298.0652">Realization</text>
        <!--link Class11 to Class12-->
        <path d="M1957.8125,169.3594 C1957.8125,235.2856 1957.8125,333.8781 1957.8125,399.7019 " fill="none" id="Class11-Class12" style="stroke: #000000; stroke-width: 3.125;" /><text fill="#000000" font-family="sans-serif" font-size="31.25" lengthAdjust="spacingAndGlyphs" textLength="168.75" x="1960.9375" y="298.0652">Association</text><text fill="#000000" font-family="sans-serif" font-size="31.25" lengthAdjust="spacingAndGlyphs" textLength="18.75" x="1936.543" y="226.5616">1</text><text fill="#000000" font-family="sans-serif" font-size="31.25" lengthAdjust="spacingAndGlyphs" textLength="56.25" x="1893.3008" y="368.1987">1..n</text>
        <!--
@startuml class-diagram-02a.svg

skinparam shadowing false

skinparam dpi 300

skinparam default{
  FontColor Black
  FontName sans-serif
  FontSize 14
  FontStyle normal
  MonospacedFontName monospace
  TextAlign left
}

skinparam note {
  BackgroundColor LemonChiffon
  BorderColor Black
  BorderThickness 1
  FontColor Black
  FontName sans-serif
  FontSize 10
  FontStyle normal
}

skinparam actor {
  BackgroundColor WhiteSmoke
  BorderColor Black
  FontColor Black
  FontName sans-serif
  FontSize 14
  FontStyle normal
  StereotypeFontColor Black
  StereotypeFontName monospace
  StereotypeFontSize 10
  StereotypeFontStyle normal
}

skinparam boundary {
  BackgroundColor WhiteSmoke
  BorderColor Black
  FontColor Black
  FontName sans-serif
  FontSize 14
  FontStyle normal
  StereotypeFontColor Black
  StereotypeFontName monospace
  StereotypeFontSize 10
  StereotypeFontStyle normal
}

skinparam control {
  BackgroundColor WhiteSmoke
  BorderColor Black
  FontColor Black
  FontName sans-serif
  FontSize 14
  FontStyle normal
  StereotypeFontColor Black
  StereotypeFontName monospace
  StereotypeFontSize 10
  StereotypeFontStyle normal
}

skinparam entity {
  BackgroundColor WhiteSmoke
  BorderColor Black
  FontColor Black
  FontName sans-serif
  FontSize 14
  FontStyle normal
  StereotypeFontColor Black
  StereotypeFontName monospace
  StereotypeFontSize 10
  StereotypeFontStyle normal
}

skinparam database {
  BackgroundColor WhiteSmoke
  BorderColor Black
  FontColor Black
  FontName sans-serif
  FontSize 14
  FontStyle normal
  StereotypeFontColor Black
  StereotypeFontName monospace
  StereotypeFontSize 10
  StereotypeFontStyle normal
}

skinparam participant {
  BackgroundColor WhiteSmoke
  BorderColor Black
  FontColor Black
  FontName sans-serif
  FontSize 14
  FontStyle normal
}

skinparam arrow {
  Color Black
  FontColor Black
  FontName sans-serif
  FontSize 10
  FontStyle normal
  LollipopColor Black
  MessageAlignment center
  Thickness 1
}

skinparam sequence {
  LifeLineBackgroundColor White
  LifeLineBorderColor Black
  LifeLineBorderThickness 1

  ArrowColor Black
  ArrowFontName sans-serif
  ArrowFontColor Black
  ArrowFontSize 10
  ArrowFontStyle normal
  ArrowThickness 1
  MessageAlign center

  GroupBackgroundColor WhiteSmoke
  GroupBodyBackgroundColor White
  GroupBorderColor Black
  GroupBorderThickness 1
  GroupFontColor Black
  GroupFontName sans-serif
  GroupFontSize 10
  GroupFontStyle normal
  GroupHeaderFontColor Black
  GroupHeaderFontName sans-serif
  GroupHeaderFontSize 10
  GroupHeaderFontStyle normal

  ReferenceBackgroundColor White
  ReferenceBorderColor Black
  ReferenceBorderThickness 1
  ReferenceFontColor Black
  ReferenceFontName sans-serif
  ReferenceFontSize 10
  ReferenceFontStyle normal
  ReferenceHeaderBackgroundColor WhiteSmoke

  ActorBorderThickness 1.5
  ParticipantBorderThickness 1.5
}

skinparam class {
  FontColor Black
  FontName sans-serif
  FontSize 14
  FontStyle normal

  BackgroundColor White
  HeaderBackgroundColor White
  BorderColor Black
  BorderThickness 1

  StereotypeFontColor black
  StereotypeFontSize 10

  AttributeFontColor black
  AttributeIconSize 0

}

skinparam class {
  CharacterFontColor Black
  CharacterFontName sans-serif
  CharacterFontSize 14
  CharacterFontStyle normal
}


Class01 <|- - Class02 : Generalization
Class03 *- - Class04 : Composition
Class05 o- - Class06 : Aggregation
Class07 <.. Class08 : Dependency
Class09 <|.. Class10 : Realization
Class11 "1" - - "1..n" Class12 : Association

@enduml

PlantUML version 1.2018.14(Sat Dec 22 01:33:16 JST 2018)
(GPL source distribution)
Java Runtime: OpenJDK Runtime Environment
JVM: OpenJDK 64-Bit Server VM
Java Version: 11.0.1+13
Operating System: Windows 7
OS Version: 6.1
Default Encoding: MS932
Language: ja
Country: JP
-->
    </g>
</svg>