<?xml version="1.0" encoding="UTF-8" standalone="no"?><svg xmlns="http://www.w3.org/2000/svg" xmlns:xlink="http://www.w3.org/1999/xlink" contentScriptType="application/ecmascript" contentStyleType="text/css" height="865.625px" preserveAspectRatio="none" style="width:2134px;height:865px;" version="1.1" viewBox="0 0 2134 865" width="2134.375px" zoomAndPan="magnify">
    <defs />
    <g>
        <!--class Class1-->
        <rect fill="#FFFFFF" height="143.75" id="Class1" style="stroke: #000000; stroke-width: 3.125;" width="228.125" x="437.5" y="356.25" />
        <rect fill="#FFFFFF" height="93.75" style="stroke: #000000; stroke-width: 3.125;" width="228.125" x="437.5" y="356.25" />
        <ellipse cx="481.25" cy="403.125" fill="#ADD1B2" rx="31.25" ry="31.25" style="stroke: #000000; stroke-width: 3.125;" />
        <path d="M492.3828,407.1289 Q491.8945,414.8438 489.1602,417.5781 Q486.7676,419.9707 483.4961,419.9707 Q480.2734,419.9707 477.8809,417.5781 Q473.584,413.2813 473.584,404.248 Q473.584,393.6523 478.2227,389.0137 Q480.6152,386.6211 483.6914,386.6211 Q486.9141,386.6211 488.8184,388.5254 Q492.3828,392.0898 492.2363,398.2422 L488.4766,398.2422 Q488.2813,392.7734 486.4258,390.918 Q485.4004,389.8926 483.6914,389.8926 Q482.1289,389.8926 480.957,391.0645 Q477.5391,394.4824 477.5391,403.9063 Q477.5391,412.1094 480.4199,414.9902 Q481.7871,416.3574 483.4961,416.3574 Q485.0586,416.3574 486.4258,414.9902 Q488.1348,413.2813 488.2813,407.1289 L492.3828,407.1289 Z " /><text fill="#000000" font-family="sans-serif" font-size="43.75" lengthAdjust="spacingAndGlyphs" textLength="134.375" x="521.875" y="421.0266">Class1</text>
        <line style="stroke: #000000; stroke-width: 3.125;" x1="440.625" x2="662.5" y1="450" y2="450" />
        <line style="stroke: #000000; stroke-width: 3.125;" x1="440.625" x2="662.5" y1="475" y2="475" />
        <path d="M18.75,392.1875 L18.75,462.7441 A0,0 0 0 0 18.75,462.7441 L328.125,462.7441 A0,0 0 0 0 328.125,462.7441 L328.125,448.4375 L437.4313,428.125 L328.125,423.4375 L328.125,423.4375 L296.875,392.1875 L18.75,392.1875 A0,0 0 0 0 18.75,392.1875 " fill="#FFFACD" style="stroke: #000000; stroke-width: 3.125;" />
        <path d="M296.875,392.1875 L296.875,423.4375 L328.125,423.4375 L296.875,392.1875 " fill="#FFFACD" style="stroke: #000000; stroke-width: 3.125;" /><text fill="#000000" font-family="sans-serif" font-size="31.25" lengthAdjust="spacingAndGlyphs" textLength="243.75" x="37.5" y="440.2527">comment on left</text>
        <path d="M775,392.1875 L775,415.625 L666.6031,428.125 L775,440.625 L775,462.7441 A0,0 0 0 0 775,462.7441 L1103.125,462.7441 A0,0 0 0 0 1103.125,462.7441 L1103.125,423.4375 L1071.875,392.1875 L775,392.1875 A0,0 0 0 0 775,392.1875 " fill="#FFFACD" style="stroke: #000000; stroke-width: 3.125;" />
        <path d="M1071.875,392.1875 L1071.875,423.4375 L1103.125,423.4375 L1071.875,392.1875 " fill="#FFFACD" style="stroke: #000000; stroke-width: 3.125;" /><text fill="#000000" font-family="sans-serif" font-size="31.25" lengthAdjust="spacingAndGlyphs" textLength="262.5" x="793.75" y="440.2527">comment on right</text>
        <path d="M396.875,60.9375 L396.875,131.4941 A0,0 0 0 0 396.875,131.4941 L539.0625,131.4941 L551.5625,355.9594 L564.0625,131.4941 L706.25,131.4941 A0,0 0 0 0 706.25,131.4941 L706.25,92.1875 L675,60.9375 L396.875,60.9375 A0,0 0 0 0 396.875,60.9375 " fill="#FFFACD" style="stroke: #000000; stroke-width: 3.125;" />
        <path d="M675,60.9375 L675,92.1875 L706.25,92.1875 L675,60.9375 " fill="#FFFACD" style="stroke: #000000; stroke-width: 3.125;" /><text fill="#000000" font-family="sans-serif" font-size="31.25" lengthAdjust="spacingAndGlyphs" textLength="243.75" x="415.625" y="109.0027">comment on top</text>
        <path d="M368.75,723.4375 L368.75,793.9941 A0,0 0 0 0 368.75,793.9941 L734.375,793.9941 A0,0 0 0 0 734.375,793.9941 L734.375,754.6875 L703.125,723.4375 L564.0625,723.4375 L551.5625,500.175 L539.0625,723.4375 L368.75,723.4375 A0,0 0 0 0 368.75,723.4375 " fill="#FFFACD" style="stroke: #000000; stroke-width: 3.125;" />
        <path d="M703.125,723.4375 L703.125,754.6875 L734.375,754.6875 L703.125,723.4375 " fill="#FFFACD" style="stroke: #000000; stroke-width: 3.125;" /><text fill="#000000" font-family="sans-serif" font-size="31.25" lengthAdjust="spacingAndGlyphs" textLength="300" x="387.5" y="771.5027">comment on bottom</text>
        <!--class Class2-->
        <rect fill="#FFFFFF" height="143.75" id="Class2" style="stroke: #000000; stroke-width: 3.125;" width="228.125" x="1375" y="25" />
        <rect fill="#FFFFFF" height="93.75" style="stroke: #000000; stroke-width: 3.125;" width="228.125" x="1375" y="25" />
        <ellipse cx="1418.75" cy="71.875" fill="#ADD1B2" rx="31.25" ry="31.25" style="stroke: #000000; stroke-width: 3.125;" />
        <path d="M1429.8828,75.8789 Q1429.3945,83.5938 1426.6602,86.3281 Q1424.2676,88.7207 1420.9961,88.7207 Q1417.7734,88.7207 1415.3809,86.3281 Q1411.084,82.0313 1411.084,72.998 Q1411.084,62.4023 1415.7227,57.7637 Q1418.1152,55.3711 1421.1914,55.3711 Q1424.4141,55.3711 1426.3184,57.2754 Q1429.8828,60.8398 1429.7363,66.9922 L1425.9766,66.9922 Q1425.7813,61.5234 1423.9258,59.668 Q1422.9004,58.6426 1421.1914,58.6426 Q1419.6289,58.6426 1418.457,59.8145 Q1415.0391,63.2324 1415.0391,72.6563 Q1415.0391,80.8594 1417.9199,83.7402 Q1419.2871,85.1074 1420.9961,85.1074 Q1422.5586,85.1074 1423.9258,83.7402 Q1425.6348,82.0313 1425.7813,75.8789 L1429.8828,75.8789 Z " /><text fill="#000000" font-family="sans-serif" font-size="43.75" lengthAdjust="spacingAndGlyphs" textLength="134.375" x="1459.375" y="89.7766">Class2</text>
        <line style="stroke: #000000; stroke-width: 3.125;" x1="1378.125" x2="1600" y1="118.75" y2="118.75" />
        <line style="stroke: #000000; stroke-width: 3.125;" x1="1378.125" x2="1600" y1="143.75" y2="143.75" />
        <!--class Class3-->
        <rect fill="#FFFFFF" height="143.75" id="Class3" style="stroke: #000000; stroke-width: 3.125;" width="228.125" x="1375" y="687.5" />
        <rect fill="#FFFFFF" height="93.75" style="stroke: #000000; stroke-width: 3.125;" width="228.125" x="1375" y="687.5" />
        <ellipse cx="1418.75" cy="734.375" fill="#ADD1B2" rx="31.25" ry="31.25" style="stroke: #000000; stroke-width: 3.125;" />
        <path d="M1429.8828,738.3789 Q1429.3945,746.0938 1426.6602,748.8281 Q1424.2676,751.2207 1420.9961,751.2207 Q1417.7734,751.2207 1415.3809,748.8281 Q1411.084,744.5313 1411.084,735.498 Q1411.084,724.9023 1415.7227,720.2637 Q1418.1152,717.8711 1421.1914,717.8711 Q1424.4141,717.8711 1426.3184,719.7754 Q1429.8828,723.3398 1429.7363,729.4922 L1425.9766,729.4922 Q1425.7813,724.0234 1423.9258,722.168 Q1422.9004,721.1426 1421.1914,721.1426 Q1419.6289,721.1426 1418.457,722.3145 Q1415.0391,725.7324 1415.0391,735.1563 Q1415.0391,743.3594 1417.9199,746.2402 Q1419.2871,747.6074 1420.9961,747.6074 Q1422.5586,747.6074 1423.9258,746.2402 Q1425.6348,744.5313 1425.7813,738.3789 L1429.8828,738.3789 Z " /><text fill="#000000" font-family="sans-serif" font-size="43.75" lengthAdjust="spacingAndGlyphs" textLength="134.375" x="1459.375" y="752.2766">Class3</text>
        <line style="stroke: #000000; stroke-width: 3.125;" x1="1378.125" x2="1600" y1="781.25" y2="781.25" />
        <line style="stroke: #000000; stroke-width: 3.125;" x1="1378.125" x2="1600" y1="806.25" y2="806.25" />
        <path d="M1437.5,392.1875 L1437.5,462.7441 L1978.125,462.7441 L1978.125,423.4375 L1946.875,392.1875 L1437.5,392.1875 " fill="#FFFACD" style="stroke: #000000; stroke-width: 3.125;" />
        <path d="M1946.875,392.1875 L1946.875,423.4375 L1978.125,423.4375 L1946.875,392.1875 " fill="#FFFACD" style="stroke: #000000; stroke-width: 3.125;" /><text fill="#000000" font-family="sans-serif" font-size="31.25" lengthAdjust="spacingAndGlyphs" textLength="475" x="1456.25" y="440.2527">Note between Class2 and Class3</text>
        <path d="M1712.5,60.9375 L1712.5,131.4941 L2096.875,131.4941 L2096.875,92.1875 L2065.625,60.9375 L1712.5,60.9375 " fill="#FFFACD" style="stroke: #000000; stroke-width: 3.125;" />
        <path d="M2065.625,60.9375 L2065.625,92.1875 L2096.875,92.1875 L2065.625,60.9375 " fill="#FFFACD" style="stroke: #000000; stroke-width: 3.125;" /><text fill="#000000" font-family="sans-serif" font-size="31.25" lengthAdjust="spacingAndGlyphs" textLength="318.75" x="1731.25" y="109.0027">This is a floating note</text>
        <!--link Class2 to Class3-->
        <path d="M1424.7,227.4156 C1407.575,267.6031 1391.4531,312.8531 1382.8125,356.25 C1370.3375,418.9094 1370.3375,437.3406 1382.8125,500 C1395.9781,566.1269 1426.5219,636.5647 1451.4969,686.8216 " fill="none" id="Class2-Class3" style="stroke: #000000; stroke-width: 3.125;" />
        <polygon fill="none" points="1405.4188,216.9875,1451.4969,169.4281,1445.1344,235.3406,1405.4188,216.9875" style="stroke: #000000; stroke-width: 3.125;" />
        <!--link Class2 to Note1-->
        <path d="M1535.4531,168.925 C1581.6062,237.4937 1650.4563,339.7844 1685.5313,391.8969 " fill="none" id="Class2-Note1" style="stroke: #000000; stroke-width: 3.125; stroke-dasharray: 7.0,7.0;" /><text fill="#000000" font-family="sans-serif" font-size="31.25" lengthAdjust="spacingAndGlyphs" textLength="18.75" x="1526.6511" y="226.0105">1</text>
        <!--link Note1 to Class3-->
        <path d="M1685.225,464.8063 C1650.0781,517.0281 1581.55,618.8381 1535.5344,687.2078 " fill="none" id="Note1-Class3" style="stroke: #000000; stroke-width: 3.125; stroke-dasharray: 7.0,7.0;" /><text fill="#000000" font-family="sans-serif" font-size="31.25" lengthAdjust="spacingAndGlyphs" textLength="56.25" x="1484.6738" y="655.7064">1..n</text>
        <!--
@startuml

skinparam shadowing false

skinparam dpi 300

skinparam default{
  FontColor Black
  FontName sans-serif
  FontSize 14
  FontStyle normal
  MonospacedFontName monospace
  TextAlign left
}

skinparam note {
  BackgroundColor LemonChiffon
  BorderColor Black
  BorderThickness 1
  FontColor Black
  FontName sans-serif
  FontSize 10
  FontStyle normal
}

skinparam actor {
  BackgroundColor WhiteSmoke
  BorderColor Black
  FontColor Black
  FontName sans-serif
  FontSize 14
  FontStyle normal
  StereotypeFontColor Black
  StereotypeFontName monospace
  StereotypeFontSize 10
  StereotypeFontStyle normal
}

skinparam boundary {
  BackgroundColor WhiteSmoke
  BorderColor Black
  FontColor Black
  FontName sans-serif
  FontSize 14
  FontStyle normal
  StereotypeFontColor Black
  StereotypeFontName monospace
  StereotypeFontSize 10
  StereotypeFontStyle normal
}

skinparam control {
  BackgroundColor WhiteSmoke
  BorderColor Black
  FontColor Black
  FontName sans-serif
  FontSize 14
  FontStyle normal
  StereotypeFontColor Black
  StereotypeFontName monospace
  StereotypeFontSize 10
  StereotypeFontStyle normal
}

skinparam entity {
  BackgroundColor WhiteSmoke
  BorderColor Black
  FontColor Black
  FontName sans-serif
  FontSize 14
  FontStyle normal
  StereotypeFontColor Black
  StereotypeFontName monospace
  StereotypeFontSize 10
  StereotypeFontStyle normal
}

skinparam database {
  BackgroundColor WhiteSmoke
  BorderColor Black
  FontColor Black
  FontName sans-serif
  FontSize 14
  FontStyle normal
  StereotypeFontColor Black
  StereotypeFontName monospace
  StereotypeFontSize 10
  StereotypeFontStyle normal
}

skinparam participant {
  BackgroundColor WhiteSmoke
  BorderColor Black
  FontColor Black
  FontName sans-serif
  FontSize 14
  FontStyle normal
}

skinparam sequence {
  LifeLineBackgroundColor White
  LifeLineBorderColor Black
  LifeLineBorderThickness 1

  ArrowColor Black
  ArrowFontName sans-serif
  ArrowFontColor Black
  ArrowFontSize 10
  ArrowFontStyle normal
  ArrowThickness 1
  MessageAlign center

  GroupBackgroundColor WhiteSmoke
  GroupBodyBackgroundColor White
  GroupBorderColor Black
  GroupBorderThickness 1
  GroupFontColor Black
  GroupFontName sans-serif
  GroupFontSize 10
  GroupFontStyle normal
  GroupHeaderFontColor Black
  GroupHeaderFontName sans-serif
  GroupHeaderFontSize 10
  GroupHeaderFontStyle normal

  ReferenceBackgroundColor White
  ReferenceBorderColor Black
  ReferenceBorderThickness 1
  ReferenceFontColor Black
  ReferenceFontName sans-serif
  ReferenceFontSize 10
  ReferenceFontStyle normal
  ReferenceHeaderBackgroundColor WhiteSmoke

  ActorBorderThickness 1.5
  ParticipantBorderThickness 1.5
}

skinparam class {
  FontColor Black
  FontName sans-serif
  FontSize 14
  FontStyle normal

  BackgroundColor White
  BorderColor Black
  BorderThickness 1
  HeaderBackgroundColor White

  ArrowColor Black
  ArrowFontName sans-serif
  ArrowFontColor Black
  ArrowFontSize 10
  ArrowFontStyle normal
  ArrowThickness 1
  MessageAlign center

  StereotypeFontColor black
  StereotypeFontSize 10

  AttributeFontColor black
  AttributeFontSize 10


}

class Class1
note left of Class1: comment on left
note right of Class1: comment on right
note top of Class1: comment on top
note bottom of Class1: comment on bottom

Class2 <|- - Class3

note "Note between Class2 and Class3" as Note1
Class2 "1" .. Note1
Note1 .. "1..n" Class3

note "This is a floating note" as Note2

@enduml

PlantUML version 1.2018.14(Sat Dec 22 01:33:16 JST 2018)
(GPL source distribution)
Java Runtime: OpenJDK Runtime Environment
JVM: OpenJDK 64-Bit Server VM
Java Version: 11.0.1+13
Operating System: Windows 7
OS Version: 6.1
Default Encoding: MS932
Language: ja
Country: JP
-->
    </g>
</svg>