<?xml version="1.0" encoding="UTF-8" standalone="no"?><svg xmlns="http://www.w3.org/2000/svg" xmlns:xlink="http://www.w3.org/1999/xlink" contentScriptType="application/ecmascript" contentStyleType="text/css" height="203.125px" preserveAspectRatio="none" style="width:2721px;height:203px;" version="1.1" viewBox="0 0 2721 203" width="2721.875px" zoomAndPan="magnify">
    <defs />
    <g>
        <!--class Class01-->
        <rect fill="#FFFFFF" height="143.75" id="Class01" style="stroke: #000000; stroke-width: 3.125;" width="253.125" x="18.75" y="25" />
        <rect fill="#FFFFFF" height="93.75" style="stroke: #000000; stroke-width: 3.125;" width="253.125" x="18.75" y="25" />
        <ellipse cx="62.5" cy="71.875" fill="#ADD1B2" rx="31.25" ry="31.25" style="stroke: #000000; stroke-width: 3.125;" />
        <path d="M73.6328,75.8789 Q73.1445,83.5938 70.4102,86.3281 Q68.0176,88.7207 64.7461,88.7207 Q61.5234,88.7207 59.1309,86.3281 Q54.834,82.0313 54.834,72.998 Q54.834,62.4023 59.4727,57.7637 Q61.8652,55.3711 64.9414,55.3711 Q68.1641,55.3711 70.0684,57.2754 Q73.6328,60.8398 73.4863,66.9922 L69.7266,66.9922 Q69.5313,61.5234 67.6758,59.668 Q66.6504,58.6426 64.9414,58.6426 Q63.3789,58.6426 62.207,59.8145 Q58.7891,63.2324 58.7891,72.6563 Q58.7891,80.8594 61.6699,83.7402 Q63.0371,85.1074 64.7461,85.1074 Q66.3086,85.1074 67.6758,83.7402 Q69.3848,82.0313 69.5313,75.8789 L73.6328,75.8789 Z " /><text fill="#000000" font-family="sans-serif" font-size="43.75" lengthAdjust="spacingAndGlyphs" textLength="159.375" x="103.125" y="89.7766">Class01</text>
        <line style="stroke: #000000; stroke-width: 3.125;" x1="21.875" x2="268.75" y1="118.75" y2="118.75" />
        <line style="stroke: #000000; stroke-width: 3.125;" x1="21.875" x2="268.75" y1="143.75" y2="143.75" />
        <!--class Class02-->
        <rect fill="#FFFFFF" height="143.75" id="Class02" style="stroke: #000000; stroke-width: 3.125;" width="253.125" x="606.25" y="25" />
        <rect fill="#FFFFFF" height="93.75" style="stroke: #000000; stroke-width: 3.125;" width="253.125" x="606.25" y="25" />
        <ellipse cx="650" cy="71.875" fill="#ADD1B2" rx="31.25" ry="31.25" style="stroke: #000000; stroke-width: 3.125;" />
        <path d="M661.1328,75.8789 Q660.6445,83.5938 657.9102,86.3281 Q655.5176,88.7207 652.2461,88.7207 Q649.0234,88.7207 646.6309,86.3281 Q642.334,82.0313 642.334,72.998 Q642.334,62.4023 646.9727,57.7637 Q649.3652,55.3711 652.4414,55.3711 Q655.6641,55.3711 657.5684,57.2754 Q661.1328,60.8398 660.9863,66.9922 L657.2266,66.9922 Q657.0313,61.5234 655.1758,59.668 Q654.1504,58.6426 652.4414,58.6426 Q650.8789,58.6426 649.707,59.8145 Q646.2891,63.2324 646.2891,72.6563 Q646.2891,80.8594 649.1699,83.7402 Q650.5371,85.1074 652.2461,85.1074 Q653.8086,85.1074 655.1758,83.7402 Q656.8848,82.0313 657.0313,75.8789 L661.1328,75.8789 Z " /><text fill="#000000" font-family="sans-serif" font-size="43.75" lengthAdjust="spacingAndGlyphs" textLength="159.375" x="690.625" y="89.7766">Class02</text>
        <line style="stroke: #000000; stroke-width: 3.125;" x1="609.375" x2="856.25" y1="118.75" y2="118.75" />
        <line style="stroke: #000000; stroke-width: 3.125;" x1="609.375" x2="856.25" y1="143.75" y2="143.75" />
        <!--class Class03-->
        <rect fill="#FFFFFF" height="143.75" id="Class03" style="stroke: #000000; stroke-width: 3.125;" width="253.125" x="968.75" y="25" />
        <rect fill="#FFFFFF" height="93.75" style="stroke: #000000; stroke-width: 3.125;" width="253.125" x="968.75" y="25" />
        <ellipse cx="1012.5" cy="71.875" fill="#ADD1B2" rx="31.25" ry="31.25" style="stroke: #000000; stroke-width: 3.125;" />
        <path d="M1023.6328,75.8789 Q1023.1445,83.5938 1020.4102,86.3281 Q1018.0176,88.7207 1014.7461,88.7207 Q1011.5234,88.7207 1009.1309,86.3281 Q1004.834,82.0313 1004.834,72.998 Q1004.834,62.4023 1009.4727,57.7637 Q1011.8652,55.3711 1014.9414,55.3711 Q1018.1641,55.3711 1020.0684,57.2754 Q1023.6328,60.8398 1023.4863,66.9922 L1019.7266,66.9922 Q1019.5313,61.5234 1017.6758,59.668 Q1016.6504,58.6426 1014.9414,58.6426 Q1013.3789,58.6426 1012.207,59.8145 Q1008.7891,63.2324 1008.7891,72.6563 Q1008.7891,80.8594 1011.6699,83.7402 Q1013.0371,85.1074 1014.7461,85.1074 Q1016.3086,85.1074 1017.6758,83.7402 Q1019.3848,82.0313 1019.5313,75.8789 L1023.6328,75.8789 Z " /><text fill="#000000" font-family="sans-serif" font-size="43.75" lengthAdjust="spacingAndGlyphs" textLength="159.375" x="1053.125" y="89.7766">Class03</text>
        <line style="stroke: #000000; stroke-width: 3.125;" x1="971.875" x2="1218.75" y1="118.75" y2="118.75" />
        <line style="stroke: #000000; stroke-width: 3.125;" x1="971.875" x2="1218.75" y1="143.75" y2="143.75" />
        <!--class Class04-->
        <rect fill="#FFFFFF" height="143.75" id="Class04" style="stroke: #000000; stroke-width: 3.125;" width="253.125" x="1521.875" y="25" />
        <rect fill="#FFFFFF" height="93.75" style="stroke: #000000; stroke-width: 3.125;" width="253.125" x="1521.875" y="25" />
        <ellipse cx="1565.625" cy="71.875" fill="#ADD1B2" rx="31.25" ry="31.25" style="stroke: #000000; stroke-width: 3.125;" />
        <path d="M1576.7578,75.8789 Q1576.2695,83.5938 1573.5352,86.3281 Q1571.1426,88.7207 1567.8711,88.7207 Q1564.6484,88.7207 1562.2559,86.3281 Q1557.959,82.0313 1557.959,72.998 Q1557.959,62.4023 1562.5977,57.7637 Q1564.9902,55.3711 1568.0664,55.3711 Q1571.2891,55.3711 1573.1934,57.2754 Q1576.7578,60.8398 1576.6113,66.9922 L1572.8516,66.9922 Q1572.6563,61.5234 1570.8008,59.668 Q1569.7754,58.6426 1568.0664,58.6426 Q1566.5039,58.6426 1565.332,59.8145 Q1561.9141,63.2324 1561.9141,72.6563 Q1561.9141,80.8594 1564.7949,83.7402 Q1566.1621,85.1074 1567.8711,85.1074 Q1569.4336,85.1074 1570.8008,83.7402 Q1572.5098,82.0313 1572.6563,75.8789 L1576.7578,75.8789 Z " /><text fill="#000000" font-family="sans-serif" font-size="43.75" lengthAdjust="spacingAndGlyphs" textLength="159.375" x="1606.25" y="89.7766">Class04</text>
        <line style="stroke: #000000; stroke-width: 3.125;" x1="1525" x2="1771.875" y1="118.75" y2="118.75" />
        <line style="stroke: #000000; stroke-width: 3.125;" x1="1525" x2="1771.875" y1="143.75" y2="143.75" />
        <!--class Class05-->
        <rect fill="#FFFFFF" height="143.75" id="Class05" style="stroke: #000000; stroke-width: 3.125;" width="253.125" x="1884.375" y="25" />
        <rect fill="#FFFFFF" height="93.75" style="stroke: #000000; stroke-width: 3.125;" width="253.125" x="1884.375" y="25" />
        <ellipse cx="1928.125" cy="71.875" fill="#ADD1B2" rx="31.25" ry="31.25" style="stroke: #000000; stroke-width: 3.125;" />
        <path d="M1939.2578,75.8789 Q1938.7695,83.5938 1936.0352,86.3281 Q1933.6426,88.7207 1930.3711,88.7207 Q1927.1484,88.7207 1924.7559,86.3281 Q1920.459,82.0313 1920.459,72.998 Q1920.459,62.4023 1925.0977,57.7637 Q1927.4902,55.3711 1930.5664,55.3711 Q1933.7891,55.3711 1935.6934,57.2754 Q1939.2578,60.8398 1939.1113,66.9922 L1935.3516,66.9922 Q1935.1563,61.5234 1933.3008,59.668 Q1932.2754,58.6426 1930.5664,58.6426 Q1929.0039,58.6426 1927.832,59.8145 Q1924.4141,63.2324 1924.4141,72.6563 Q1924.4141,80.8594 1927.2949,83.7402 Q1928.6621,85.1074 1930.3711,85.1074 Q1931.9336,85.1074 1933.3008,83.7402 Q1935.0098,82.0313 1935.1563,75.8789 L1939.2578,75.8789 Z " /><text fill="#000000" font-family="sans-serif" font-size="43.75" lengthAdjust="spacingAndGlyphs" textLength="159.375" x="1968.75" y="89.7766">Class05</text>
        <line style="stroke: #000000; stroke-width: 3.125;" x1="1887.5" x2="2134.375" y1="118.75" y2="118.75" />
        <line style="stroke: #000000; stroke-width: 3.125;" x1="1887.5" x2="2134.375" y1="143.75" y2="143.75" />
        <!--class Class06-->
        <rect fill="#FFFFFF" height="143.75" id="Class06" style="stroke: #000000; stroke-width: 3.125;" width="253.125" x="2434.375" y="25" />
        <rect fill="#FFFFFF" height="93.75" style="stroke: #000000; stroke-width: 3.125;" width="253.125" x="2434.375" y="25" />
        <ellipse cx="2478.125" cy="71.875" fill="#ADD1B2" rx="31.25" ry="31.25" style="stroke: #000000; stroke-width: 3.125;" />
        <path d="M2489.2578,75.8789 Q2488.7695,83.5938 2486.0352,86.3281 Q2483.6426,88.7207 2480.3711,88.7207 Q2477.1484,88.7207 2474.7559,86.3281 Q2470.459,82.0313 2470.459,72.998 Q2470.459,62.4023 2475.0977,57.7637 Q2477.4902,55.3711 2480.5664,55.3711 Q2483.7891,55.3711 2485.6934,57.2754 Q2489.2578,60.8398 2489.1113,66.9922 L2485.3516,66.9922 Q2485.1563,61.5234 2483.3008,59.668 Q2482.2754,58.6426 2480.5664,58.6426 Q2479.0039,58.6426 2477.832,59.8145 Q2474.4141,63.2324 2474.4141,72.6563 Q2474.4141,80.8594 2477.2949,83.7402 Q2478.6621,85.1074 2480.3711,85.1074 Q2481.9336,85.1074 2483.3008,83.7402 Q2485.0098,82.0313 2485.1563,75.8789 L2489.2578,75.8789 Z " /><text fill="#000000" font-family="sans-serif" font-size="43.75" lengthAdjust="spacingAndGlyphs" textLength="159.375" x="2518.75" y="89.7766">Class06</text>
        <line style="stroke: #000000; stroke-width: 3.125;" x1="2437.5" x2="2684.375" y1="118.75" y2="118.75" />
        <line style="stroke: #000000; stroke-width: 3.125;" x1="2437.5" x2="2684.375" y1="143.75" y2="143.75" />
        <!--link Class01 to Class02-->
        <path d="M335.5281,96.875 C423.95,96.875 526.7219,96.875 605.5813,96.875 " fill="none" id="Class01-Class02" style="stroke: #000000; stroke-width: 3.125;" />
        <polygon fill="none" points="335.2906,118.7497,272.7913,96.875,335.2906,74.9997,335.2906,118.7497" style="stroke: #000000; stroke-width: 3.125;" /><text fill="#000000" font-family="sans-serif" font-size="31.25" lengthAdjust="spacingAndGlyphs" textLength="218.75" x="329.6875" y="79.3152">Generalization</text>
        <!--link Class03 to Class04-->
        <path d="M1263.9094,96.875 C1346.6906,96.875 1444.7844,96.875 1521.1719,96.875 " fill="none" id="Class03-Class04" style="stroke: #000000; stroke-width: 3.125;" />
        <polygon fill="#000000" points="1222.2094,96.875,1240.9594,109.375,1259.7094,96.875,1240.9594,84.375,1222.2094,96.875" style="stroke: #000000; stroke-width: 3.125;" /><text fill="#000000" font-family="sans-serif" font-size="31.25" lengthAdjust="spacingAndGlyphs" textLength="184.375" x="1279.6875" y="79.3152">Composition</text>
        <!--link Class05 to Class06-->
        <path d="M2179.8031,96.875 C2261.7438,96.875 2358.5313,96.875 2434.0656,96.875 " fill="none" id="Class05-Class06" style="stroke: #000000; stroke-width: 3.125;" />
        <polygon fill="#FFFFFF" points="2138.5,96.875,2157.25,109.375,2176,96.875,2157.25,84.375,2138.5,96.875" style="stroke: #000000; stroke-width: 3.125;" /><text fill="#000000" font-family="sans-serif" font-size="31.25" lengthAdjust="spacingAndGlyphs" textLength="181.25" x="2195.3125" y="79.3152">Aggregation</text>
        <!--
@startuml class-diagram-02b.svg

skinparam shadowing false

skinparam dpi 300

skinparam default{
  FontColor Black
  FontName sans-serif
  FontSize 14
  FontStyle normal
  MonospacedFontName monospace
  TextAlign left
}

skinparam note {
  BackgroundColor LemonChiffon
  BorderColor Black
  BorderThickness 1
  FontColor Black
  FontName sans-serif
  FontSize 10
  FontStyle normal
}

skinparam actor {
  BackgroundColor WhiteSmoke
  BorderColor Black
  FontColor Black
  FontName sans-serif
  FontSize 14
  FontStyle normal
  StereotypeFontColor Black
  StereotypeFontName monospace
  StereotypeFontSize 10
  StereotypeFontStyle normal
}

skinparam boundary {
  BackgroundColor WhiteSmoke
  BorderColor Black
  FontColor Black
  FontName sans-serif
  FontSize 14
  FontStyle normal
  StereotypeFontColor Black
  StereotypeFontName monospace
  StereotypeFontSize 10
  StereotypeFontStyle normal
}

skinparam control {
  BackgroundColor WhiteSmoke
  BorderColor Black
  FontColor Black
  FontName sans-serif
  FontSize 14
  FontStyle normal
  StereotypeFontColor Black
  StereotypeFontName monospace
  StereotypeFontSize 10
  StereotypeFontStyle normal
}

skinparam entity {
  BackgroundColor WhiteSmoke
  BorderColor Black
  FontColor Black
  FontName sans-serif
  FontSize 14
  FontStyle normal
  StereotypeFontColor Black
  StereotypeFontName monospace
  StereotypeFontSize 10
  StereotypeFontStyle normal
}

skinparam database {
  BackgroundColor WhiteSmoke
  BorderColor Black
  FontColor Black
  FontName sans-serif
  FontSize 14
  FontStyle normal
  StereotypeFontColor Black
  StereotypeFontName monospace
  StereotypeFontSize 10
  StereotypeFontStyle normal
}

skinparam participant {
  BackgroundColor WhiteSmoke
  BorderColor Black
  FontColor Black
  FontName sans-serif
  FontSize 14
  FontStyle normal
}

skinparam arrow {
  Color Black
  FontColor Black
  FontName sans-serif
  FontSize 10
  FontStyle normal
  LollipopColor Black
  MessageAlignment center
  Thickness 1
}

skinparam sequence {
  LifeLineBackgroundColor White
  LifeLineBorderColor Black
  LifeLineBorderThickness 1

  ArrowColor Black
  ArrowFontName sans-serif
  ArrowFontColor Black
  ArrowFontSize 10
  ArrowFontStyle normal
  ArrowThickness 1
  MessageAlign center

  GroupBackgroundColor WhiteSmoke
  GroupBodyBackgroundColor White
  GroupBorderColor Black
  GroupBorderThickness 1
  GroupFontColor Black
  GroupFontName sans-serif
  GroupFontSize 10
  GroupFontStyle normal
  GroupHeaderFontColor Black
  GroupHeaderFontName sans-serif
  GroupHeaderFontSize 10
  GroupHeaderFontStyle normal

  ReferenceBackgroundColor White
  ReferenceBorderColor Black
  ReferenceBorderThickness 1
  ReferenceFontColor Black
  ReferenceFontName sans-serif
  ReferenceFontSize 10
  ReferenceFontStyle normal
  ReferenceHeaderBackgroundColor WhiteSmoke

  ActorBorderThickness 1.5
  ParticipantBorderThickness 1.5
}

skinparam class {
  FontColor Black
  FontName sans-serif
  FontSize 14
  FontStyle normal

  BackgroundColor White
  HeaderBackgroundColor White
  BorderColor Black
  BorderThickness 1

  StereotypeFontColor black
  StereotypeFontSize 10

  AttributeFontColor black
  AttributeIconSize 0

}

skinparam class {
  CharacterFontColor Black
  CharacterFontName sans-serif
  CharacterFontSize 14
  CharacterFontStyle normal
}


Class01 <|- Class02 : Generalization

Class03 *- Class04 : Composition

Class05 o- Class06 : Aggregation

@enduml

PlantUML version 1.2018.14(Sat Dec 22 01:33:16 JST 2018)
(GPL source distribution)
Java Runtime: OpenJDK Runtime Environment
JVM: OpenJDK 64-Bit Server VM
Java Version: 11.0.1+13
Operating System: Windows 7
OS Version: 6.1
Default Encoding: MS932
Language: ja
Country: JP
-->
    </g>
</svg>