<?xml version="1.0" encoding="UTF-8" standalone="no"?><svg xmlns="http://www.w3.org/2000/svg" xmlns:xlink="http://www.w3.org/1999/xlink" contentScriptType="application/ecmascript" contentStyleType="text/css" height="696.875px" preserveAspectRatio="none" style="width:1418px;height:696px;" version="1.1" viewBox="0 0 1418 696" width="1418.75px" zoomAndPan="magnify">
    <defs />
    <g>
        <!--class InterfaceClass-->
        <rect fill="#FFFFFF" height="143.75" id="InterfaceClass" style="stroke: #000000; stroke-width: 3.125;" width="378.125" x="18.75" y="25" />
        <rect fill="#FFFFFF" height="93.75" style="stroke: #000000; stroke-width: 3.125;" width="378.125" x="18.75" y="25" />
        <ellipse cx="62.5" cy="71.875" fill="#B4A7E5" rx="31.25" ry="31.25" style="stroke: #000000; stroke-width: 3.125;" />
        <path d="M67.5293,84.9609 L69.3848,84.9609 L69.3848,88.7207 L61.7188,88.7207 L61.7188,84.9609 L63.5742,84.9609 L63.5742,59.1309 L61.7188,59.1309 L61.7188,55.3711 L69.3848,55.3711 L69.3848,59.1309 L67.5293,59.1309 L67.5293,84.9609 Z " /><text fill="#000000" font-family="sans-serif" font-size="43.75" font-style="italic" lengthAdjust="spacingAndGlyphs" textLength="284.375" x="103.125" y="89.7766">InterfaceClass</text>
        <line style="stroke: #000000; stroke-width: 3.125;" x1="21.875" x2="393.75" y1="118.75" y2="118.75" />
        <line style="stroke: #000000; stroke-width: 3.125;" x1="21.875" x2="393.75" y1="143.75" y2="143.75" />
        <!--class AbstractClass-->
        <rect fill="#FFFFFF" height="143.75" id="AbstractClass" style="stroke: #000000; stroke-width: 3.125;" width="365.625" x="506.25" y="25" />
        <rect fill="#FFFFFF" height="93.75" style="stroke: #000000; stroke-width: 3.125;" width="365.625" x="506.25" y="25" />
        <ellipse cx="550" cy="71.875" fill="#A9DCDF" rx="31.25" ry="31.25" style="stroke: #000000; stroke-width: 3.125;" />
        <path d="M546.9727,87.9395 L542.8711,87.9395 L551.416,54.5898 L554.834,54.5898 L563.3789,87.9395 L559.2773,87.9395 L556.8848,78.1738 L549.3652,78.1738 L546.9727,87.9395 Z M553.3203,63.6719 L552.9785,63.6719 L550.2441,74.9512 L556.0547,74.9512 L553.3203,63.6719 Z " /><text fill="#000000" font-family="sans-serif" font-size="43.75" font-style="italic" lengthAdjust="spacingAndGlyphs" textLength="271.875" x="590.625" y="89.7766">AbstractClass</text>
        <line style="stroke: #000000; stroke-width: 3.125;" x1="509.375" x2="868.75" y1="118.75" y2="118.75" />
        <line style="stroke: #000000; stroke-width: 3.125;" x1="509.375" x2="868.75" y1="143.75" y2="143.75" />
        <!--class ImplementClass-->
        <rect fill="#FFFFFF" height="143.75" id="ImplementClass" style="stroke: #000000; stroke-width: 3.125;" width="403.125" x="981.25" y="25" />
        <rect fill="#FFFFFF" height="93.75" style="stroke: #000000; stroke-width: 3.125;" width="403.125" x="981.25" y="25" />
        <ellipse cx="1025" cy="71.875" fill="#ADD1B2" rx="31.25" ry="31.25" style="stroke: #000000; stroke-width: 3.125;" />
        <path d="M1036.1328,75.8789 Q1035.6445,83.5938 1032.9102,86.3281 Q1030.5176,88.7207 1027.2461,88.7207 Q1024.0234,88.7207 1021.6309,86.3281 Q1017.334,82.0313 1017.334,72.998 Q1017.334,62.4023 1021.9727,57.7637 Q1024.3652,55.3711 1027.4414,55.3711 Q1030.6641,55.3711 1032.5684,57.2754 Q1036.1328,60.8398 1035.9863,66.9922 L1032.2266,66.9922 Q1032.0313,61.5234 1030.1758,59.668 Q1029.1504,58.6426 1027.4414,58.6426 Q1025.8789,58.6426 1024.707,59.8145 Q1021.2891,63.2324 1021.2891,72.6563 Q1021.2891,80.8594 1024.1699,83.7402 Q1025.5371,85.1074 1027.2461,85.1074 Q1028.8086,85.1074 1030.1758,83.7402 Q1031.8848,82.0313 1032.0313,75.8789 L1036.1328,75.8789 Z " /><text fill="#000000" font-family="sans-serif" font-size="43.75" lengthAdjust="spacingAndGlyphs" textLength="309.375" x="1065.625" y="89.7766">ImplementClass</text>
        <line style="stroke: #000000; stroke-width: 3.125;" x1="984.375" x2="1381.25" y1="118.75" y2="118.75" />
        <line style="stroke: #000000; stroke-width: 3.125;" x1="984.375" x2="1381.25" y1="143.75" y2="143.75" />
        <!--class ClassName-->
        <rect fill="#FFFFFF" height="175.5859" id="ClassName" style="stroke: #000000; stroke-width: 3.125;" width="315.625" x="50" y="423.4375" />
        <rect fill="#FFFFFF" height="125.5859" style="stroke: #000000; stroke-width: 3.125;" width="315.625" x="50" y="423.4375" />
        <ellipse cx="93.75" cy="486.2305" fill="#ADD1B2" rx="31.25" ry="31.25" style="stroke: #000000; stroke-width: 3.125;" />
        <path d="M104.8828,490.2344 Q104.3945,497.9492 101.6602,500.6836 Q99.2676,503.0762 95.9961,503.0762 Q92.7734,503.0762 90.3809,500.6836 Q86.084,496.3867 86.084,487.3535 Q86.084,476.7578 90.7227,472.1191 Q93.1152,469.7266 96.1914,469.7266 Q99.4141,469.7266 101.3184,471.6309 Q104.8828,475.1953 104.7363,481.3477 L100.9766,481.3477 Q100.7813,475.8789 98.9258,474.0234 Q97.9004,472.998 96.1914,472.998 Q94.6289,472.998 93.457,474.1699 Q90.0391,477.5879 90.0391,487.0117 Q90.0391,495.2148 92.9199,498.0957 Q94.2871,499.4629 95.9961,499.4629 Q97.5586,499.4629 98.9258,498.0957 Q100.6348,496.3867 100.7813,490.2344 L104.8828,490.2344 Z " /><text fill="#000000" font-family="sans-serif" font-size="31.25" lengthAdjust="spacingAndGlyphs" textLength="196.875" x="146.875" y="471.5027">«Stereotype»</text><text fill="#000000" font-family="sans-serif" font-size="43.75" lengthAdjust="spacingAndGlyphs" textLength="221.875" x="134.375" y="523.7854">ClassName</text>
        <line style="stroke: #000000; stroke-width: 3.125;" x1="53.125" x2="362.5" y1="549.0234" y2="549.0234" />
        <line style="stroke: #000000; stroke-width: 3.125;" x1="53.125" x2="362.5" y1="574.0234" y2="574.0234" />
        <!--class Enum-->
        <rect fill="#FFFFFF" height="308.8379" id="Enum" style="stroke: #000000; stroke-width: 3.125;" width="206.25" x="476.5625" y="356.25" />
        <rect fill="#FFFFFF" height="93.75" style="stroke: #000000; stroke-width: 3.125;" width="206.25" x="476.5625" y="356.25" />
        <ellipse cx="520.3125" cy="403.125" fill="#EB937F" rx="31.25" ry="31.25" style="stroke: #000000; stroke-width: 3.125;" />
        <path d="M518.9941,400.6348 L530.6152,400.6348 L530.6152,403.9063 L518.9941,403.9063 L518.9941,416.6992 L532.5195,416.6992 L532.5195,419.9707 L515.0879,419.9707 L515.0879,386.6211 L531.6406,386.6211 L531.6406,389.8926 L518.9941,389.8926 L518.9941,400.6348 Z " /><text fill="#000000" font-family="sans-serif" font-size="43.75" lengthAdjust="spacingAndGlyphs" textLength="112.5" x="560.9375" y="421.0266">Enum</text>
        <line style="stroke: #000000; stroke-width: 3.125;" x1="479.6875" x2="679.6875" y1="450" y2="450" /><text fill="#000000" font-family="sans-serif" font-size="43.75" lengthAdjust="spacingAndGlyphs" textLength="90.625" x="495.3125" y="507.9163">ONE</text><text fill="#000000" font-family="sans-serif" font-size="43.75" lengthAdjust="spacingAndGlyphs" textLength="103.125" x="495.3125" y="562.9456">TWO</text><text fill="#000000" font-family="sans-serif" font-size="43.75" lengthAdjust="spacingAndGlyphs" textLength="143.75" x="495.3125" y="617.9749">THREE</text>
        <line style="stroke: #000000; stroke-width: 3.125;" x1="479.6875" x2="679.6875" y1="640.0879" y2="640.0879" />
        <!--class Annotation-->
        <rect fill="#FFFFFF" height="143.75" id="Annotation" style="stroke: #000000; stroke-width: 3.125;" width="306.25" x="792.1875" y="439.0625" />
        <rect fill="#FFFFFF" height="93.75" style="stroke: #000000; stroke-width: 3.125;" width="306.25" x="792.1875" y="439.0625" />
        <ellipse cx="835.9375" cy="485.9375" fill="#E3664A" rx="31.25" ry="31.25" style="stroke: #000000; stroke-width: 3.125;" />
        <path d="M845.7031,483.4473 Q845.7031,475.5859 842.1387,472.0215 Q840.2344,470.1172 838.3789,470.1172 Q836.3281,470.1172 834.4238,472.0215 Q829.2969,477.1484 829.2969,488.916 Q829.2969,498.1445 833.0566,501.9043 Q835.4492,504.3457 837.8418,504.3457 Q840.5762,504.3457 842.9688,501.416 L843.8477,502.5879 Q841.2598,505.8594 837.6953,505.8594 Q834.6191,505.8594 832.2266,503.4668 Q827.5879,498.8281 827.5879,488.916 Q827.5879,476.6113 833.3984,470.8008 Q835.6445,468.6035 838.3789,468.6035 Q841.1133,468.6035 843.3105,470.8008 Q847.2656,474.7559 847.2656,483.4473 Q847.2656,493.3594 844.1895,496.4355 Q842.9688,497.6563 841.6016,497.6563 Q839.7461,497.6563 839.0625,495.6055 Q837.3535,497.6563 835.6445,497.6563 Q834.2773,497.6563 833.3984,496.7773 Q831.543,494.9219 831.543,489.9414 Q831.543,481.25 835.1074,477.6367 Q836.3281,476.4648 837.8418,476.4648 Q839.5508,476.4648 840.5762,478.5156 L841.4551,476.8066 L843.3105,476.8066 L840.918,493.2129 Q840.5762,495.2637 842.1387,495.2637 Q842.8223,495.2637 843.5059,494.5801 Q845.7031,492.334 845.7031,483.4473 Z M839.8926,482.0801 Q839.8926,480.2246 839.209,479.541 Q838.7207,479.0039 838.0371,479.0039 Q837.1582,479.0039 836.6699,479.541 Q834.2773,481.9336 834.2773,489.7949 Q834.2773,493.5547 835.1074,494.3848 Q835.6445,494.9219 836.1328,494.9219 Q836.8164,494.9219 837.1582,494.5801 Q838.5254,493.2129 838.7207,491.6504 L839.8926,482.0801 Z " /><text fill="#000000" font-family="sans-serif" font-size="43.75" lengthAdjust="spacingAndGlyphs" textLength="212.5" x="876.5625" y="503.8391">Annotation</text>
        <line style="stroke: #000000; stroke-width: 3.125;" x1="795.3125" x2="1095.3125" y1="532.8125" y2="532.8125" />
        <line style="stroke: #000000; stroke-width: 3.125;" x1="795.3125" x2="1095.3125" y1="557.8125" y2="557.8125" />
        <!--link InterfaceClass to AbstractClass-->
        <!--link AbstractClass to ImplementClass-->
        <!--link InterfaceClass to ClassName-->
        <!--link ClassName to Enum-->
        <!--link Enum to Annotation-->
        <!--
@startuml

skinparam shadowing false

skinparam dpi 300

skinparam default{
  FontColor Black
  FontName sans-serif
  FontSize 14
  FontStyle normal
  MonospacedFontName monospace
  TextAlign left
}

skinparam note {
  BackgroundColor LemonChiffon
  BorderColor Black
  BorderThickness 1
  FontColor Black
  FontName sans-serif
  FontSize 10
  FontStyle normal
}

skinparam actor {
  BackgroundColor WhiteSmoke
  BorderColor Black
  FontColor Black
  FontName sans-serif
  FontSize 14
  FontStyle normal
  StereotypeFontColor Black
  StereotypeFontName monospace
  StereotypeFontSize 10
  StereotypeFontStyle normal
}

skinparam boundary {
  BackgroundColor WhiteSmoke
  BorderColor Black
  FontColor Black
  FontName sans-serif
  FontSize 14
  FontStyle normal
  StereotypeFontColor Black
  StereotypeFontName monospace
  StereotypeFontSize 10
  StereotypeFontStyle normal
}

skinparam control {
  BackgroundColor WhiteSmoke
  BorderColor Black
  FontColor Black
  FontName sans-serif
  FontSize 14
  FontStyle normal
  StereotypeFontColor Black
  StereotypeFontName monospace
  StereotypeFontSize 10
  StereotypeFontStyle normal
}

skinparam entity {
  BackgroundColor WhiteSmoke
  BorderColor Black
  FontColor Black
  FontName sans-serif
  FontSize 14
  FontStyle normal
  StereotypeFontColor Black
  StereotypeFontName monospace
  StereotypeFontSize 10
  StereotypeFontStyle normal
}

skinparam database {
  BackgroundColor WhiteSmoke
  BorderColor Black
  FontColor Black
  FontName sans-serif
  FontSize 14
  FontStyle normal
  StereotypeFontColor Black
  StereotypeFontName monospace
  StereotypeFontSize 10
  StereotypeFontStyle normal
}

skinparam participant {
  BackgroundColor WhiteSmoke
  BorderColor Black
  FontColor Black
  FontName sans-serif
  FontSize 14
  FontStyle normal
}

skinparam sequence {
  LifeLineBackgroundColor White
  LifeLineBorderColor Black
  LifeLineBorderThickness 1

  ArrowColor Black
  ArrowFontName sans-serif
  ArrowFontColor Black
  ArrowFontSize 10
  ArrowFontStyle normal
  ArrowThickness 1
  MessageAlign center

  GroupBackgroundColor WhiteSmoke
  GroupBodyBackgroundColor White
  GroupBorderColor Black
  GroupBorderThickness 1
  GroupFontColor Black
  GroupFontName sans-serif
  GroupFontSize 10
  GroupFontStyle normal
  GroupHeaderFontColor Black
  GroupHeaderFontName sans-serif
  GroupHeaderFontSize 10
  GroupHeaderFontStyle normal

  ReferenceBackgroundColor White
  ReferenceBorderColor Black
  ReferenceBorderThickness 1
  ReferenceFontColor Black
  ReferenceFontName sans-serif
  ReferenceFontSize 10
  ReferenceFontStyle normal
  ReferenceHeaderBackgroundColor WhiteSmoke

  ActorBorderThickness 1.5
  ParticipantBorderThickness 1.5
}

skinparam class {
  FontColor Black
  FontName sans-serif
  FontSize 14
  FontStyle normal

  BackgroundColor White
  HeaderBackgroundColor White
  BorderColor Black
  BorderThickness 1

  ArrowColor Black
  ArrowFontName sans-serif
  ArrowFontColor Black
  ArrowFontSize 10
  ArrowFontStyle normal
  ArrowThickness 1
  MessageAlign center

  StereotypeFontColor black
  StereotypeFontSize 10

  AttributeFontColor black
  AttributeIconSize 0

}

interface InterfaceClass
abstract AbstractClass
class ImplementClass
class ClassName <<Stereotype>>

enum Enum {
  ONE
  TWO
  THREE
}

annotation Annotation

@enduml

PlantUML version 1.2018.14(Sat Dec 22 01:33:16 JST 2018)
(GPL source distribution)
Java Runtime: OpenJDK Runtime Environment
JVM: OpenJDK 64-Bit Server VM
Java Version: 11.0.1+13
Operating System: Windows 7
OS Version: 6.1
Default Encoding: MS932
Language: ja
Country: JP
-->
    </g>
</svg>