<?xml version="1.0" encoding="UTF-8" standalone="no"?><svg xmlns="http://www.w3.org/2000/svg" xmlns:xlink="http://www.w3.org/1999/xlink" contentScriptType="application/ecmascript" contentStyleType="text/css" height="846.875px" preserveAspectRatio="none" style="width:1146px;height:846px;" version="1.1" viewBox="0 0 1146 846" width="1146.875px" zoomAndPan="magnify">
    <defs />
    <g>
        <!--class friends-->
        <rect fill="#FFFFFF" height="143.75" id="friends" style="stroke: #000000; stroke-width: 3.125;" width="228.125" x="445.3125" y="284.375" />
        <rect fill="#FFFFFF" height="93.75" style="stroke: #000000; stroke-width: 3.125;" width="228.125" x="445.3125" y="284.375" />
        <ellipse cx="489.0625" cy="331.25" fill="#A9DCDF" rx="31.25" ry="31.25" style="stroke: #000000; stroke-width: 3.125;" />
        <path d="M486.0352,347.3145 L481.9336,347.3145 L490.4785,313.9648 L493.8965,313.9648 L502.4414,347.3145 L498.3398,347.3145 L495.9473,337.5488 L488.4277,337.5488 L486.0352,347.3145 Z M492.3828,323.0469 L492.041,323.0469 L489.3066,334.3262 L495.1172,334.3262 L492.3828,323.0469 Z " /><text fill="#000000" font-family="sans-serif" font-size="43.75" font-style="italic" lengthAdjust="spacingAndGlyphs" textLength="134.375" x="529.6875" y="349.1516">friends</text>
        <line style="stroke: #000000; stroke-width: 3.125;" x1="448.4375" x2="670.3125" y1="378.125" y2="378.125" />
        <line style="stroke: #000000; stroke-width: 3.125;" x1="448.4375" x2="670.3125" y1="403.125" y2="403.125" />
        <!--class serval-->
        <rect fill="#FFFFFF" height="198.7793" id="serval" style="stroke: #000000; stroke-width: 3.125;" width="212.5" x="18.75" y="615.625" />
        <rect fill="#FFFFFF" height="93.75" style="stroke: #000000; stroke-width: 3.125;" width="212.5" x="18.75" y="615.625" />
        <ellipse cx="62.5" cy="662.5" fill="#ADD1B2" rx="31.25" ry="31.25" style="stroke: #000000; stroke-width: 3.125;" />
        <path d="M73.6328,666.5039 Q73.1445,674.2188 70.4102,676.9531 Q68.0176,679.3457 64.7461,679.3457 Q61.5234,679.3457 59.1309,676.9531 Q54.834,672.6563 54.834,663.623 Q54.834,653.0273 59.4727,648.3887 Q61.8652,645.9961 64.9414,645.9961 Q68.1641,645.9961 70.0684,647.9004 Q73.6328,651.4648 73.4863,657.6172 L69.7266,657.6172 Q69.5313,652.1484 67.6758,650.293 Q66.6504,649.2676 64.9414,649.2676 Q63.3789,649.2676 62.207,650.4395 Q58.7891,653.8574 58.7891,663.2813 Q58.7891,671.4844 61.6699,674.3652 Q63.0371,675.7324 64.7461,675.7324 Q66.3086,675.7324 67.6758,674.3652 Q69.3848,672.6563 69.5313,666.5039 L73.6328,666.5039 Z " /><text fill="#000000" font-family="sans-serif" font-size="43.75" lengthAdjust="spacingAndGlyphs" textLength="118.75" x="103.125" y="680.4016">serval</text>
        <line style="stroke: #000000; stroke-width: 3.125;" x1="21.875" x2="228.125" y1="709.375" y2="709.375" />
        <line style="stroke: #000000; stroke-width: 3.125;" x1="21.875" x2="228.125" y1="734.375" y2="734.375" /><text fill="#000000" font-family="sans-serif" font-size="43.75" lengthAdjust="spacingAndGlyphs" textLength="156.25" x="37.5" y="792.2913">+Waai()</text>
        <!--class raccoon-->
        <rect fill="#FFFFFF" height="198.7793" id="raccoon" style="stroke: #000000; stroke-width: 3.125;" width="434.375" x="342.1875" y="615.625" />
        <rect fill="#FFFFFF" height="93.75" style="stroke: #000000; stroke-width: 3.125;" width="434.375" x="342.1875" y="615.625" />
        <ellipse cx="467.5" cy="662.5" fill="#ADD1B2" rx="31.25" ry="31.25" style="stroke: #000000; stroke-width: 3.125;" />
        <path d="M478.6328,666.5039 Q478.1445,674.2188 475.4102,676.9531 Q473.0176,679.3457 469.7461,679.3457 Q466.5234,679.3457 464.1309,676.9531 Q459.834,672.6563 459.834,663.623 Q459.834,653.0273 464.4727,648.3887 Q466.8652,645.9961 469.9414,645.9961 Q473.1641,645.9961 475.0684,647.9004 Q478.6328,651.4648 478.4863,657.6172 L474.7266,657.6172 Q474.5313,652.1484 472.6758,650.293 Q471.6504,649.2676 469.9414,649.2676 Q468.3789,649.2676 467.207,650.4395 Q463.7891,653.8574 463.7891,663.2813 Q463.7891,671.4844 466.6699,674.3652 Q468.0371,675.7324 469.7461,675.7324 Q471.3086,675.7324 472.6758,674.3652 Q474.3848,672.6563 474.5313,666.5039 L478.6328,666.5039 Z " /><text fill="#000000" font-family="sans-serif" font-size="43.75" lengthAdjust="spacingAndGlyphs" textLength="159.375" x="526.25" y="680.4016">raccoon</text>
        <line style="stroke: #000000; stroke-width: 3.125;" x1="345.3125" x2="773.4375" y1="709.375" y2="709.375" />
        <line style="stroke: #000000; stroke-width: 3.125;" x1="345.3125" x2="773.4375" y1="734.375" y2="734.375" /><text fill="#000000" font-family="sans-serif" font-size="43.75" lengthAdjust="spacingAndGlyphs" textLength="396.875" x="360.9375" y="792.2913">+OmakaseNanoda()</text>
        <!--class fennec-->
        <rect fill="#FFFFFF" height="198.7793" id="fennec" style="stroke: #000000; stroke-width: 3.125;" width="228.125" x="885.9375" y="615.625" />
        <rect fill="#FFFFFF" height="93.75" style="stroke: #000000; stroke-width: 3.125;" width="228.125" x="885.9375" y="615.625" />
        <ellipse cx="929.6875" cy="662.5" fill="#ADD1B2" rx="31.25" ry="31.25" style="stroke: #000000; stroke-width: 3.125;" />
        <path d="M940.8203,666.5039 Q940.332,674.2188 937.5977,676.9531 Q935.2051,679.3457 931.9336,679.3457 Q928.7109,679.3457 926.3184,676.9531 Q922.0215,672.6563 922.0215,663.623 Q922.0215,653.0273 926.6602,648.3887 Q929.0527,645.9961 932.1289,645.9961 Q935.3516,645.9961 937.2559,647.9004 Q940.8203,651.4648 940.6738,657.6172 L936.9141,657.6172 Q936.7188,652.1484 934.8633,650.293 Q933.8379,649.2676 932.1289,649.2676 Q930.5664,649.2676 929.3945,650.4395 Q925.9766,653.8574 925.9766,663.2813 Q925.9766,671.4844 928.8574,674.3652 Q930.2246,675.7324 931.9336,675.7324 Q933.4961,675.7324 934.8633,674.3652 Q936.5723,672.6563 936.7188,666.5039 L940.8203,666.5039 Z " /><text fill="#000000" font-family="sans-serif" font-size="43.75" lengthAdjust="spacingAndGlyphs" textLength="134.375" x="970.3125" y="680.4016">fennec</text>
        <line style="stroke: #000000; stroke-width: 3.125;" x1="889.0625" x2="1110.9375" y1="709.375" y2="709.375" />
        <line style="stroke: #000000; stroke-width: 3.125;" x1="889.0625" x2="1110.9375" y1="734.375" y2="734.375" /><text fill="#000000" font-family="sans-serif" font-size="43.75" lengthAdjust="spacingAndGlyphs" textLength="165.625" x="904.6875" y="792.2913">+Haiyo()</text>
        <path d="M354.6875,25 L354.6875,95.5566 A0,0 0 0 0 354.6875,95.5566 L546.875,95.5566 L559.375,284.2187 L571.875,95.5566 L764.0625,95.5566 A0,0 0 0 0 764.0625,95.5566 L764.0625,56.25 L732.8125,25 L354.6875,25 A0,0 0 0 0 354.6875,25 " fill="#FFFACD" style="stroke: #000000; stroke-width: 3.125;" />
        <path d="M732.8125,25 L732.8125,56.25 L764.0625,56.25 L732.8125,25 " fill="#FFFACD" style="stroke: #000000; stroke-width: 3.125;" /><text fill="#000000" font-family="sans-serif" font-size="31.25" lengthAdjust="spacingAndGlyphs" textLength="343.75" x="373.4375" y="73.0652">みんな自由に生きている</text>
        <!--link friends to serval-->
        <path d="M425.4313,468.2625 C363.2438,518.8188 290.3291,578.0956 231.9056,625.5913 " fill="none" id="friends-serval" style="stroke: #000000; stroke-width: 3.125;" />
        <polygon fill="none" points="412.2969,450.75,474.5906,428.3,439.8937,484.6969,412.2969,450.75" style="stroke: #000000; stroke-width: 3.125;" />
        <!--link friends to raccoon-->
        <path d="M559.375,491.875 C559.375,532.5028 559.375,576.4537 559.375,614.355 " fill="none" id="friends-raccoon" style="stroke: #000000; stroke-width: 3.125;" />
        <polygon fill="none" points="537.5,490.8,559.375,428.3,581.25,490.8,537.5,490.8" style="stroke: #000000; stroke-width: 3.125;" />
        <!--link friends to fennec-->
        <path d="M694.8469,467.9469 C756.0063,516.9591 827.4594,574.2231 885.8438,621.0125 " fill="none" id="friends-fennec" style="stroke: #000000; stroke-width: 3.125;" />
        <polygon fill="none" points="680.4688,484.4563,645.3781,428.3,707.8281,450.3156,680.4688,484.4563" style="stroke: #000000; stroke-width: 3.125;" />
        <!--
@startuml

skinparam shadowing false

skinparam dpi 300

skinparam default{
  FontColor Black
  FontName sans-serif
  FontSize 14
  FontStyle normal
  MonospacedFontName monospace
  TextAlign left
}

skinparam note {
  BackgroundColor LemonChiffon
  BorderColor Black
  BorderThickness 1
  FontColor Black
  FontName sans-serif
  FontSize 10
  FontStyle normal
}

skinparam actor {
  BackgroundColor WhiteSmoke
  BorderColor Black
  FontColor Black
  FontName sans-serif
  FontSize 14
  FontStyle normal
  StereotypeFontColor Black
  StereotypeFontName monospace
  StereotypeFontSize 10
  StereotypeFontStyle normal
}

skinparam boundary {
  BackgroundColor WhiteSmoke
  BorderColor Black
  FontColor Black
  FontName sans-serif
  FontSize 14
  FontStyle normal
  StereotypeFontColor Black
  StereotypeFontName monospace
  StereotypeFontSize 10
  StereotypeFontStyle normal
}

skinparam control {
  BackgroundColor WhiteSmoke
  BorderColor Black
  FontColor Black
  FontName sans-serif
  FontSize 14
  FontStyle normal
  StereotypeFontColor Black
  StereotypeFontName monospace
  StereotypeFontSize 10
  StereotypeFontStyle normal
}

skinparam entity {
  BackgroundColor WhiteSmoke
  BorderColor Black
  FontColor Black
  FontName sans-serif
  FontSize 14
  FontStyle normal
  StereotypeFontColor Black
  StereotypeFontName monospace
  StereotypeFontSize 10
  StereotypeFontStyle normal
}

skinparam database {
  BackgroundColor WhiteSmoke
  BorderColor Black
  FontColor Black
  FontName sans-serif
  FontSize 14
  FontStyle normal
  StereotypeFontColor Black
  StereotypeFontName monospace
  StereotypeFontSize 10
  StereotypeFontStyle normal
}

skinparam participant {
  BackgroundColor WhiteSmoke
  BorderColor Black
  FontColor Black
  FontName sans-serif
  FontSize 14
  FontStyle normal
}

skinparam sequence {
  LifeLineBackgroundColor White
  LifeLineBorderColor Black
  LifeLineBorderThickness 1

  ArrowColor Black
  ArrowFontName sans-serif
  ArrowFontColor Black
  ArrowFontSize 10
  ArrowFontStyle normal
  ArrowThickness 1
  MessageAlign center

  GroupBackgroundColor WhiteSmoke
  GroupBodyBackgroundColor White
  GroupBorderColor Black
  GroupBorderThickness 1
  GroupFontColor Black
  GroupFontName sans-serif
  GroupFontSize 10
  GroupFontStyle normal
  GroupHeaderFontColor Black
  GroupHeaderFontName sans-serif
  GroupHeaderFontSize 10
  GroupHeaderFontStyle normal

  ReferenceBackgroundColor White
  ReferenceBorderColor Black
  ReferenceBorderThickness 1
  ReferenceFontColor Black
  ReferenceFontName sans-serif
  ReferenceFontSize 10
  ReferenceFontStyle normal
  ReferenceHeaderBackgroundColor WhiteSmoke

  ActorBorderThickness 1.5
  ParticipantBorderThickness 1.5
}

skinparam class {
  FontColor Black
  FontName sans-serif
  FontSize 14
  FontStyle normal

  BackgroundColor White
  HeaderBackgroundColor White
  BorderColor Black
  BorderThickness 1

  ArrowColor Black
  ArrowFontName sans-serif
  ArrowFontColor Black
  ArrowFontSize 10
  ArrowFontStyle normal
  ArrowThickness 1
  MessageAlign center

  StereotypeFontColor black
  StereotypeFontSize 10

  AttributeFontColor black
  AttributeIconSize 0

}

abstract class friends {
}
class serval {
  +Waai()
}
class raccoon {
  +OmakaseNanoda()
}
class fennec {
  +Haiyo()
}

friends <|- - serval
friends <|- - raccoon
friends <|- - fennec
note top of friends: みんな自由に生きている

@enduml

PlantUML version 1.2018.14(Sat Dec 22 01:33:16 JST 2018)
(GPL source distribution)
Java Runtime: OpenJDK Runtime Environment
JVM: OpenJDK 64-Bit Server VM
Java Version: 11.0.1+13
Operating System: Windows 7
OS Version: 6.1
Default Encoding: MS932
Language: ja
Country: JP
-->
    </g>
</svg>