<?xml version="1.0" encoding="UTF-8" standalone="no"?><svg xmlns="http://www.w3.org/2000/svg" xmlns:xlink="http://www.w3.org/1999/xlink" contentScriptType="application/ecmascript" contentStyleType="text/css" height="203.125px" preserveAspectRatio="none" style="width:2662px;height:203px;" version="1.1" viewBox="0 0 2662 203" width="2662.5px" zoomAndPan="magnify">
    <defs />
    <g>
        <!--class Class07-->
        <rect fill="#FFFFFF" height="143.75" id="Class07" style="stroke: #000000; stroke-width: 3.125;" width="253.125" x="18.75" y="25" />
        <rect fill="#FFFFFF" height="93.75" style="stroke: #000000; stroke-width: 3.125;" width="253.125" x="18.75" y="25" />
        <ellipse cx="62.5" cy="71.875" fill="#ADD1B2" rx="31.25" ry="31.25" style="stroke: #000000; stroke-width: 3.125;" />
        <path d="M73.6328,75.8789 Q73.1445,83.5938 70.4102,86.3281 Q68.0176,88.7207 64.7461,88.7207 Q61.5234,88.7207 59.1309,86.3281 Q54.834,82.0313 54.834,72.998 Q54.834,62.4023 59.4727,57.7637 Q61.8652,55.3711 64.9414,55.3711 Q68.1641,55.3711 70.0684,57.2754 Q73.6328,60.8398 73.4863,66.9922 L69.7266,66.9922 Q69.5313,61.5234 67.6758,59.668 Q66.6504,58.6426 64.9414,58.6426 Q63.3789,58.6426 62.207,59.8145 Q58.7891,63.2324 58.7891,72.6563 Q58.7891,80.8594 61.6699,83.7402 Q63.0371,85.1074 64.7461,85.1074 Q66.3086,85.1074 67.6758,83.7402 Q69.3848,82.0313 69.5313,75.8789 L73.6328,75.8789 Z " /><text fill="#000000" font-family="sans-serif" font-size="43.75" lengthAdjust="spacingAndGlyphs" textLength="159.375" x="103.125" y="89.7766">Class07</text>
        <line style="stroke: #000000; stroke-width: 3.125;" x1="21.875" x2="268.75" y1="118.75" y2="118.75" />
        <line style="stroke: #000000; stroke-width: 3.125;" x1="21.875" x2="268.75" y1="143.75" y2="143.75" />
        <!--class Class08-->
        <rect fill="#FFFFFF" height="143.75" id="Class08" style="stroke: #000000; stroke-width: 3.125;" width="253.125" x="575" y="25" />
        <rect fill="#FFFFFF" height="93.75" style="stroke: #000000; stroke-width: 3.125;" width="253.125" x="575" y="25" />
        <ellipse cx="618.75" cy="71.875" fill="#ADD1B2" rx="31.25" ry="31.25" style="stroke: #000000; stroke-width: 3.125;" />
        <path d="M629.8828,75.8789 Q629.3945,83.5938 626.6602,86.3281 Q624.2676,88.7207 620.9961,88.7207 Q617.7734,88.7207 615.3809,86.3281 Q611.084,82.0313 611.084,72.998 Q611.084,62.4023 615.7227,57.7637 Q618.1152,55.3711 621.1914,55.3711 Q624.4141,55.3711 626.3184,57.2754 Q629.8828,60.8398 629.7363,66.9922 L625.9766,66.9922 Q625.7813,61.5234 623.9258,59.668 Q622.9004,58.6426 621.1914,58.6426 Q619.6289,58.6426 618.457,59.8145 Q615.0391,63.2324 615.0391,72.6563 Q615.0391,80.8594 617.9199,83.7402 Q619.2871,85.1074 620.9961,85.1074 Q622.5586,85.1074 623.9258,83.7402 Q625.6348,82.0313 625.7813,75.8789 L629.8828,75.8789 Z " /><text fill="#000000" font-family="sans-serif" font-size="43.75" lengthAdjust="spacingAndGlyphs" textLength="159.375" x="659.375" y="89.7766">Class08</text>
        <line style="stroke: #000000; stroke-width: 3.125;" x1="578.125" x2="825" y1="118.75" y2="118.75" />
        <line style="stroke: #000000; stroke-width: 3.125;" x1="578.125" x2="825" y1="143.75" y2="143.75" />
        <!--class Class09-->
        <rect fill="#FFFFFF" height="143.75" id="Class09" style="stroke: #000000; stroke-width: 3.125;" width="253.125" x="937.5" y="25" />
        <rect fill="#FFFFFF" height="93.75" style="stroke: #000000; stroke-width: 3.125;" width="253.125" x="937.5" y="25" />
        <ellipse cx="981.25" cy="71.875" fill="#ADD1B2" rx="31.25" ry="31.25" style="stroke: #000000; stroke-width: 3.125;" />
        <path d="M992.3828,75.8789 Q991.8945,83.5938 989.1602,86.3281 Q986.7676,88.7207 983.4961,88.7207 Q980.2734,88.7207 977.8809,86.3281 Q973.584,82.0313 973.584,72.998 Q973.584,62.4023 978.2227,57.7637 Q980.6152,55.3711 983.6914,55.3711 Q986.9141,55.3711 988.8184,57.2754 Q992.3828,60.8398 992.2363,66.9922 L988.4766,66.9922 Q988.2813,61.5234 986.4258,59.668 Q985.4004,58.6426 983.6914,58.6426 Q982.1289,58.6426 980.957,59.8145 Q977.5391,63.2324 977.5391,72.6563 Q977.5391,80.8594 980.4199,83.7402 Q981.7871,85.1074 983.4961,85.1074 Q985.0586,85.1074 986.4258,83.7402 Q988.1348,82.0313 988.2813,75.8789 L992.3828,75.8789 Z " /><text fill="#000000" font-family="sans-serif" font-size="43.75" lengthAdjust="spacingAndGlyphs" textLength="159.375" x="1021.875" y="89.7766">Class09</text>
        <line style="stroke: #000000; stroke-width: 3.125;" x1="940.625" x2="1187.5" y1="118.75" y2="118.75" />
        <line style="stroke: #000000; stroke-width: 3.125;" x1="940.625" x2="1187.5" y1="143.75" y2="143.75" />
        <!--class Class10-->
        <rect fill="#FFFFFF" height="143.75" id="Class10" style="stroke: #000000; stroke-width: 3.125;" width="253.125" x="1475" y="25" />
        <rect fill="#FFFFFF" height="93.75" style="stroke: #000000; stroke-width: 3.125;" width="253.125" x="1475" y="25" />
        <ellipse cx="1518.75" cy="71.875" fill="#ADD1B2" rx="31.25" ry="31.25" style="stroke: #000000; stroke-width: 3.125;" />
        <path d="M1529.8828,75.8789 Q1529.3945,83.5938 1526.6602,86.3281 Q1524.2676,88.7207 1520.9961,88.7207 Q1517.7734,88.7207 1515.3809,86.3281 Q1511.084,82.0313 1511.084,72.998 Q1511.084,62.4023 1515.7227,57.7637 Q1518.1152,55.3711 1521.1914,55.3711 Q1524.4141,55.3711 1526.3184,57.2754 Q1529.8828,60.8398 1529.7363,66.9922 L1525.9766,66.9922 Q1525.7813,61.5234 1523.9258,59.668 Q1522.9004,58.6426 1521.1914,58.6426 Q1519.6289,58.6426 1518.457,59.8145 Q1515.0391,63.2324 1515.0391,72.6563 Q1515.0391,80.8594 1517.9199,83.7402 Q1519.2871,85.1074 1520.9961,85.1074 Q1522.5586,85.1074 1523.9258,83.7402 Q1525.6348,82.0313 1525.7813,75.8789 L1529.8828,75.8789 Z " /><text fill="#000000" font-family="sans-serif" font-size="43.75" lengthAdjust="spacingAndGlyphs" textLength="159.375" x="1559.375" y="89.7766">Class10</text>
        <line style="stroke: #000000; stroke-width: 3.125;" x1="1478.125" x2="1725" y1="118.75" y2="118.75" />
        <line style="stroke: #000000; stroke-width: 3.125;" x1="1478.125" x2="1725" y1="143.75" y2="143.75" />
        <!--class Class11-->
        <rect fill="#FFFFFF" height="143.75" id="Class11" style="stroke: #000000; stroke-width: 3.125;" width="253.125" x="1837.5" y="25" />
        <rect fill="#FFFFFF" height="93.75" style="stroke: #000000; stroke-width: 3.125;" width="253.125" x="1837.5" y="25" />
        <ellipse cx="1881.25" cy="71.875" fill="#ADD1B2" rx="31.25" ry="31.25" style="stroke: #000000; stroke-width: 3.125;" />
        <path d="M1892.3828,75.8789 Q1891.8945,83.5938 1889.1602,86.3281 Q1886.7676,88.7207 1883.4961,88.7207 Q1880.2734,88.7207 1877.8809,86.3281 Q1873.584,82.0313 1873.584,72.998 Q1873.584,62.4023 1878.2227,57.7637 Q1880.6152,55.3711 1883.6914,55.3711 Q1886.9141,55.3711 1888.8184,57.2754 Q1892.3828,60.8398 1892.2363,66.9922 L1888.4766,66.9922 Q1888.2813,61.5234 1886.4258,59.668 Q1885.4004,58.6426 1883.6914,58.6426 Q1882.1289,58.6426 1880.957,59.8145 Q1877.5391,63.2324 1877.5391,72.6563 Q1877.5391,80.8594 1880.4199,83.7402 Q1881.7871,85.1074 1883.4961,85.1074 Q1885.0586,85.1074 1886.4258,83.7402 Q1888.1348,82.0313 1888.2813,75.8789 L1892.3828,75.8789 Z " /><text fill="#000000" font-family="sans-serif" font-size="43.75" lengthAdjust="spacingAndGlyphs" textLength="159.375" x="1921.875" y="89.7766">Class11</text>
        <line style="stroke: #000000; stroke-width: 3.125;" x1="1840.625" x2="2087.5" y1="118.75" y2="118.75" />
        <line style="stroke: #000000; stroke-width: 3.125;" x1="1840.625" x2="2087.5" y1="143.75" y2="143.75" />
        <!--class Class12-->
        <rect fill="#FFFFFF" height="143.75" id="Class12" style="stroke: #000000; stroke-width: 3.125;" width="253.125" x="2375" y="25" />
        <rect fill="#FFFFFF" height="93.75" style="stroke: #000000; stroke-width: 3.125;" width="253.125" x="2375" y="25" />
        <ellipse cx="2418.75" cy="71.875" fill="#ADD1B2" rx="31.25" ry="31.25" style="stroke: #000000; stroke-width: 3.125;" />
        <path d="M2429.8828,75.8789 Q2429.3945,83.5938 2426.6602,86.3281 Q2424.2676,88.7207 2420.9961,88.7207 Q2417.7734,88.7207 2415.3809,86.3281 Q2411.084,82.0313 2411.084,72.998 Q2411.084,62.4023 2415.7227,57.7637 Q2418.1152,55.3711 2421.1914,55.3711 Q2424.4141,55.3711 2426.3184,57.2754 Q2429.8828,60.8398 2429.7363,66.9922 L2425.9766,66.9922 Q2425.7813,61.5234 2423.9258,59.668 Q2422.9004,58.6426 2421.1914,58.6426 Q2419.6289,58.6426 2418.457,59.8145 Q2415.0391,63.2324 2415.0391,72.6563 Q2415.0391,80.8594 2417.9199,83.7402 Q2419.2871,85.1074 2420.9961,85.1074 Q2422.5586,85.1074 2423.9258,83.7402 Q2425.6348,82.0313 2425.7813,75.8789 L2429.8828,75.8789 Z " /><text fill="#000000" font-family="sans-serif" font-size="43.75" lengthAdjust="spacingAndGlyphs" textLength="159.375" x="2459.375" y="89.7766">Class12</text>
        <line style="stroke: #000000; stroke-width: 3.125;" x1="2378.125" x2="2625" y1="118.75" y2="118.75" />
        <line style="stroke: #000000; stroke-width: 3.125;" x1="2378.125" x2="2625" y1="143.75" y2="143.75" />
        <!--link Class07 to Class08-->
        <path d="M289.1278,96.875 C377.4344,96.875 489.5156,96.875 574.5406,96.875 " fill="none" id="Class07-Class08" style="stroke: #000000; stroke-width: 3.125; stroke-dasharray: 7.0,7.0;" />
        <polygon fill="#000000" points="272.9275,96.875,301.0525,109.375,288.5525,96.875,301.0525,84.375,272.9275,96.875" style="stroke: #000000; stroke-width: 3.125;" /><text fill="#000000" font-family="sans-serif" font-size="31.25" lengthAdjust="spacingAndGlyphs" textLength="187.5" x="329.6875" y="79.3152">Dependency</text>
        <!--link Class09 to Class10-->
        <path d="M1254.0563,96.875 C1327.0156,96.875 1408.4688,96.875 1474.1656,96.875 " fill="none" id="Class09-Class10" style="stroke: #000000; stroke-width: 3.125; stroke-dasharray: 7.0,7.0;" />
        <polygon fill="none" points="1253.9438,118.7497,1191.4438,96.875,1253.9438,74.9997,1253.9438,118.7497" style="stroke: #000000; stroke-width: 3.125;" /><text fill="#000000" font-family="sans-serif" font-size="31.25" lengthAdjust="spacingAndGlyphs" textLength="168.75" x="1248.4375" y="79.3152">Realization</text>
        <!--link Class11 to Class12-->
        <path d="M2091.4438,96.875 C2176.8125,96.875 2288.7906,96.875 2374.1656,96.875 " fill="none" id="Class11-Class12" style="stroke: #000000; stroke-width: 3.125;" /><text fill="#000000" font-family="sans-serif" font-size="31.25" lengthAdjust="spacingAndGlyphs" textLength="168.75" x="2148.4375" y="79.3152">Association</text><text fill="#000000" font-family="sans-serif" font-size="31.25" lengthAdjust="spacingAndGlyphs" textLength="18.75" x="2115.8035" y="88.6362">1</text><text fill="#000000" font-family="sans-serif" font-size="31.25" lengthAdjust="spacingAndGlyphs" textLength="56.25" x="2294.1013" y="132.3246">1..n</text>
        <!--
@startuml class-diagram-02c.svg

skinparam shadowing false

skinparam dpi 300

skinparam default{
  FontColor Black
  FontName sans-serif
  FontSize 14
  FontStyle normal
  MonospacedFontName monospace
  TextAlign left
}

skinparam note {
  BackgroundColor LemonChiffon
  BorderColor Black
  BorderThickness 1
  FontColor Black
  FontName sans-serif
  FontSize 10
  FontStyle normal
}

skinparam actor {
  BackgroundColor WhiteSmoke
  BorderColor Black
  FontColor Black
  FontName sans-serif
  FontSize 14
  FontStyle normal
  StereotypeFontColor Black
  StereotypeFontName monospace
  StereotypeFontSize 10
  StereotypeFontStyle normal
}

skinparam boundary {
  BackgroundColor WhiteSmoke
  BorderColor Black
  FontColor Black
  FontName sans-serif
  FontSize 14
  FontStyle normal
  StereotypeFontColor Black
  StereotypeFontName monospace
  StereotypeFontSize 10
  StereotypeFontStyle normal
}

skinparam control {
  BackgroundColor WhiteSmoke
  BorderColor Black
  FontColor Black
  FontName sans-serif
  FontSize 14
  FontStyle normal
  StereotypeFontColor Black
  StereotypeFontName monospace
  StereotypeFontSize 10
  StereotypeFontStyle normal
}

skinparam entity {
  BackgroundColor WhiteSmoke
  BorderColor Black
  FontColor Black
  FontName sans-serif
  FontSize 14
  FontStyle normal
  StereotypeFontColor Black
  StereotypeFontName monospace
  StereotypeFontSize 10
  StereotypeFontStyle normal
}

skinparam database {
  BackgroundColor WhiteSmoke
  BorderColor Black
  FontColor Black
  FontName sans-serif
  FontSize 14
  FontStyle normal
  StereotypeFontColor Black
  StereotypeFontName monospace
  StereotypeFontSize 10
  StereotypeFontStyle normal
}

skinparam participant {
  BackgroundColor WhiteSmoke
  BorderColor Black
  FontColor Black
  FontName sans-serif
  FontSize 14
  FontStyle normal
}

skinparam arrow {
  Color Black
  FontColor Black
  FontName sans-serif
  FontSize 10
  FontStyle normal
  LollipopColor Black
  MessageAlignment center
  Thickness 1
}

skinparam sequence {
  LifeLineBackgroundColor White
  LifeLineBorderColor Black
  LifeLineBorderThickness 1

  ArrowColor Black
  ArrowFontName sans-serif
  ArrowFontColor Black
  ArrowFontSize 10
  ArrowFontStyle normal
  ArrowThickness 1
  MessageAlign center

  GroupBackgroundColor WhiteSmoke
  GroupBodyBackgroundColor White
  GroupBorderColor Black
  GroupBorderThickness 1
  GroupFontColor Black
  GroupFontName sans-serif
  GroupFontSize 10
  GroupFontStyle normal
  GroupHeaderFontColor Black
  GroupHeaderFontName sans-serif
  GroupHeaderFontSize 10
  GroupHeaderFontStyle normal

  ReferenceBackgroundColor White
  ReferenceBorderColor Black
  ReferenceBorderThickness 1
  ReferenceFontColor Black
  ReferenceFontName sans-serif
  ReferenceFontSize 10
  ReferenceFontStyle normal
  ReferenceHeaderBackgroundColor WhiteSmoke

  ActorBorderThickness 1.5
  ParticipantBorderThickness 1.5
}

skinparam class {
  FontColor Black
  FontName sans-serif
  FontSize 14
  FontStyle normal

  BackgroundColor White
  HeaderBackgroundColor White
  BorderColor Black
  BorderThickness 1

  StereotypeFontColor black
  StereotypeFontSize 10

  AttributeFontColor black
  AttributeIconSize 0

}

skinparam class {
  CharacterFontColor Black
  CharacterFontName sans-serif
  CharacterFontSize 14
  CharacterFontStyle normal
}


Class07 <. Class08 : Dependency

Class09 <|. Class10 : Realization

Class11 "1" - "1..n" Class12 : Association

@enduml

PlantUML version 1.2018.14(Sat Dec 22 01:33:16 JST 2018)
(GPL source distribution)
Java Runtime: OpenJDK Runtime Environment
JVM: OpenJDK 64-Bit Server VM
Java Version: 11.0.1+13
Operating System: Windows 7
OS Version: 6.1
Default Encoding: MS932
Language: ja
Country: JP
-->
    </g>
</svg>