<?xml version="1.0" encoding="UTF-8" standalone="no"?><svg xmlns="http://www.w3.org/2000/svg" xmlns:xlink="http://www.w3.org/1999/xlink" contentScriptType="application/ecmascript" contentStyleType="text/css" height="800px" preserveAspectRatio="none" style="width:1550px;height:800px;" version="1.1" viewBox="0 0 1550 800" width="1550px" zoomAndPan="magnify">
    <defs />
    <g>
        <!--cluster Package1-->
        <polygon fill="#FFFFFF" points="412.5,75,628.125,75,650,148.7793,818.75,148.7793,818.75,381.25,412.5,381.25,412.5,75" style="stroke: #000000; stroke-width: 4.6875;" />
        <line style="stroke: #000000; stroke-width: 4.6875;" x1="412.5" x2="650" y1="148.7793" y2="148.7793" /><text fill="#000000" font-family="sans-serif" font-size="43.75" lengthAdjust="spacingAndGlyphs" textLength="196.875" x="425" y="126.6663">Package1</text>
        <!--cluster Package2-->
        <polygon fill="#FFFFFF" points="68.75,456.25,284.375,456.25,306.25,530.0293,737.5,530.0293,737.5,762.5,68.75,762.5,68.75,456.25" style="stroke: #000000; stroke-width: 4.6875;" />
        <line style="stroke: #000000; stroke-width: 4.6875;" x1="68.75" x2="306.25" y1="530.0293" y2="530.0293" /><text fill="#000000" font-family="sans-serif" font-size="43.75" lengthAdjust="spacingAndGlyphs" textLength="196.875" x="81.25" y="507.9163">Package2</text>
        <!--cluster Package3-->
        <polygon fill="#FFFFFF" points="812.5,456.25,1028.125,456.25,1050,530.0293,1481.25,530.0293,1481.25,762.5,812.5,762.5,812.5,456.25" style="stroke: #000000; stroke-width: 4.6875;" />
        <line style="stroke: #000000; stroke-width: 4.6875;" x1="812.5" x2="1050" y1="530.0293" y2="530.0293" /><text fill="#000000" font-family="sans-serif" font-size="43.75" lengthAdjust="spacingAndGlyphs" textLength="196.875" x="825" y="507.9163">Package3</text>
        <!--class Package1.BaseClass-->
        <rect fill="#FFFFFF" height="143.75" id="Package1.BaseClass" style="stroke: #000000; stroke-width: 3.125;" width="303.125" x="464.0625" y="187.5" />
        <rect fill="#FFFFFF" height="93.75" style="stroke: #000000; stroke-width: 3.125;" width="303.125" x="464.0625" y="187.5" />
        <ellipse cx="507.8125" cy="234.375" fill="#ADD1B2" rx="31.25" ry="31.25" style="stroke: #000000; stroke-width: 3.125;" />
        <path d="M518.9453,238.3789 Q518.457,246.0938 515.7227,248.8281 Q513.3301,251.2207 510.0586,251.2207 Q506.8359,251.2207 504.4434,248.8281 Q500.1465,244.5313 500.1465,235.498 Q500.1465,224.9023 504.7852,220.2637 Q507.1777,217.8711 510.2539,217.8711 Q513.4766,217.8711 515.3809,219.7754 Q518.9453,223.3398 518.7988,229.4922 L515.0391,229.4922 Q514.8438,224.0234 512.9883,222.168 Q511.9629,221.1426 510.2539,221.1426 Q508.6914,221.1426 507.5195,222.3145 Q504.1016,225.7324 504.1016,235.1563 Q504.1016,243.3594 506.9824,246.2402 Q508.3496,247.6074 510.0586,247.6074 Q511.6211,247.6074 512.9883,246.2402 Q514.6973,244.5313 514.8438,238.3789 L518.9453,238.3789 Z " /><text fill="#000000" font-family="sans-serif" font-size="43.75" lengthAdjust="spacingAndGlyphs" textLength="209.375" x="548.4375" y="252.2766">BaseClass</text>
        <line style="stroke: #000000; stroke-width: 3.125;" x1="467.1875" x2="764.0625" y1="281.25" y2="281.25" />
        <line style="stroke: #000000; stroke-width: 3.125;" x1="467.1875" x2="764.0625" y1="306.25" y2="306.25" />
        <!--class Package2.Class1-->
        <rect fill="#FFFFFF" height="143.75" id="Package2.Class1" style="stroke: #000000; stroke-width: 3.125;" width="228.125" x="120.3125" y="568.75" />
        <rect fill="#FFFFFF" height="93.75" style="stroke: #000000; stroke-width: 3.125;" width="228.125" x="120.3125" y="568.75" />
        <ellipse cx="164.0625" cy="615.625" fill="#ADD1B2" rx="31.25" ry="31.25" style="stroke: #000000; stroke-width: 3.125;" />
        <path d="M175.1953,619.6289 Q174.707,627.3438 171.9727,630.0781 Q169.5801,632.4707 166.3086,632.4707 Q163.0859,632.4707 160.6934,630.0781 Q156.3965,625.7813 156.3965,616.748 Q156.3965,606.1523 161.0352,601.5137 Q163.4277,599.1211 166.5039,599.1211 Q169.7266,599.1211 171.6309,601.0254 Q175.1953,604.5898 175.0488,610.7422 L171.2891,610.7422 Q171.0938,605.2734 169.2383,603.418 Q168.2129,602.3926 166.5039,602.3926 Q164.9414,602.3926 163.7695,603.5645 Q160.3516,606.9824 160.3516,616.4063 Q160.3516,624.6094 163.2324,627.4902 Q164.5996,628.8574 166.3086,628.8574 Q167.8711,628.8574 169.2383,627.4902 Q170.9473,625.7813 171.0938,619.6289 L175.1953,619.6289 Z " /><text fill="#000000" font-family="sans-serif" font-size="43.75" lengthAdjust="spacingAndGlyphs" textLength="134.375" x="204.6875" y="633.5266">Class1</text>
        <line style="stroke: #000000; stroke-width: 3.125;" x1="123.4375" x2="345.3125" y1="662.5" y2="662.5" />
        <line style="stroke: #000000; stroke-width: 3.125;" x1="123.4375" x2="345.3125" y1="687.5" y2="687.5" />
        <!--class Package2.Class2-->
        <rect fill="#FFFFFF" height="143.75" id="Package2.Class2" style="stroke: #000000; stroke-width: 3.125;" width="228.125" x="457.8125" y="568.75" />
        <rect fill="#FFFFFF" height="93.75" style="stroke: #000000; stroke-width: 3.125;" width="228.125" x="457.8125" y="568.75" />
        <ellipse cx="501.5625" cy="615.625" fill="#ADD1B2" rx="31.25" ry="31.25" style="stroke: #000000; stroke-width: 3.125;" />
        <path d="M512.6953,619.6289 Q512.207,627.3438 509.4727,630.0781 Q507.0801,632.4707 503.8086,632.4707 Q500.5859,632.4707 498.1934,630.0781 Q493.8965,625.7813 493.8965,616.748 Q493.8965,606.1523 498.5352,601.5137 Q500.9277,599.1211 504.0039,599.1211 Q507.2266,599.1211 509.1309,601.0254 Q512.6953,604.5898 512.5488,610.7422 L508.7891,610.7422 Q508.5938,605.2734 506.7383,603.418 Q505.7129,602.3926 504.0039,602.3926 Q502.4414,602.3926 501.2695,603.5645 Q497.8516,606.9824 497.8516,616.4063 Q497.8516,624.6094 500.7324,627.4902 Q502.0996,628.8574 503.8086,628.8574 Q505.3711,628.8574 506.7383,627.4902 Q508.4473,625.7813 508.5938,619.6289 L512.6953,619.6289 Z " /><text fill="#000000" font-family="sans-serif" font-size="43.75" lengthAdjust="spacingAndGlyphs" textLength="134.375" x="542.1875" y="633.5266">Class2</text>
        <line style="stroke: #000000; stroke-width: 3.125;" x1="460.9375" x2="682.8125" y1="662.5" y2="662.5" />
        <line style="stroke: #000000; stroke-width: 3.125;" x1="460.9375" x2="682.8125" y1="687.5" y2="687.5" />
        <!--class Package3.Class1-->
        <rect fill="#FFFFFF" height="143.75" id="Package3.Class1" style="stroke: #000000; stroke-width: 3.125;" width="228.125" x="864.0625" y="568.75" />
        <rect fill="#FFFFFF" height="93.75" style="stroke: #000000; stroke-width: 3.125;" width="228.125" x="864.0625" y="568.75" />
        <ellipse cx="907.8125" cy="615.625" fill="#ADD1B2" rx="31.25" ry="31.25" style="stroke: #000000; stroke-width: 3.125;" />
        <path d="M918.9453,619.6289 Q918.457,627.3438 915.7227,630.0781 Q913.3301,632.4707 910.0586,632.4707 Q906.8359,632.4707 904.4434,630.0781 Q900.1465,625.7813 900.1465,616.748 Q900.1465,606.1523 904.7852,601.5137 Q907.1777,599.1211 910.2539,599.1211 Q913.4766,599.1211 915.3809,601.0254 Q918.9453,604.5898 918.7988,610.7422 L915.0391,610.7422 Q914.8438,605.2734 912.9883,603.418 Q911.9629,602.3926 910.2539,602.3926 Q908.6914,602.3926 907.5195,603.5645 Q904.1016,606.9824 904.1016,616.4063 Q904.1016,624.6094 906.9824,627.4902 Q908.3496,628.8574 910.0586,628.8574 Q911.6211,628.8574 912.9883,627.4902 Q914.6973,625.7813 914.8438,619.6289 L918.9453,619.6289 Z " /><text fill="#000000" font-family="sans-serif" font-size="43.75" lengthAdjust="spacingAndGlyphs" textLength="134.375" x="948.4375" y="633.5266">Class1</text>
        <line style="stroke: #000000; stroke-width: 3.125;" x1="867.1875" x2="1089.0625" y1="662.5" y2="662.5" />
        <line style="stroke: #000000; stroke-width: 3.125;" x1="867.1875" x2="1089.0625" y1="687.5" y2="687.5" />
        <!--class Package3.Class2-->
        <rect fill="#FFFFFF" height="143.75" id="Package3.Class2" style="stroke: #000000; stroke-width: 3.125;" width="228.125" x="1201.5625" y="568.75" />
        <rect fill="#FFFFFF" height="93.75" style="stroke: #000000; stroke-width: 3.125;" width="228.125" x="1201.5625" y="568.75" />
        <ellipse cx="1245.3125" cy="615.625" fill="#ADD1B2" rx="31.25" ry="31.25" style="stroke: #000000; stroke-width: 3.125;" />
        <path d="M1256.4453,619.6289 Q1255.957,627.3438 1253.2227,630.0781 Q1250.8301,632.4707 1247.5586,632.4707 Q1244.3359,632.4707 1241.9434,630.0781 Q1237.6465,625.7813 1237.6465,616.748 Q1237.6465,606.1523 1242.2852,601.5137 Q1244.6777,599.1211 1247.7539,599.1211 Q1250.9766,599.1211 1252.8809,601.0254 Q1256.4453,604.5898 1256.2988,610.7422 L1252.5391,610.7422 Q1252.3438,605.2734 1250.4883,603.418 Q1249.4629,602.3926 1247.7539,602.3926 Q1246.1914,602.3926 1245.0195,603.5645 Q1241.6016,606.9824 1241.6016,616.4063 Q1241.6016,624.6094 1244.4824,627.4902 Q1245.8496,628.8574 1247.5586,628.8574 Q1249.1211,628.8574 1250.4883,627.4902 Q1252.1973,625.7813 1252.3438,619.6289 L1256.4453,619.6289 Z " /><text fill="#000000" font-family="sans-serif" font-size="43.75" lengthAdjust="spacingAndGlyphs" textLength="134.375" x="1285.9375" y="633.5266">Class2</text>
        <line style="stroke: #000000; stroke-width: 3.125;" x1="1204.6875" x2="1426.5625" y1="662.5" y2="662.5" />
        <line style="stroke: #000000; stroke-width: 3.125;" x1="1204.6875" x2="1426.5625" y1="687.5" y2="687.5" />
        <!--link Package1.BaseClass to Package2.Class1-->
        <path d="M470.1625,371.1594 C447.0156,390.3719 423.8812,410.7938 403.125,431.25 C359.9563,473.7938 316.7813,526.8031 284.9084,568.4284 " fill="none" id="Package1.BaseClass-Package2.Class1" style="stroke: #000000; stroke-width: 3.125;" />
        <polygon fill="none" points="457.4344,353.3313,519.95,331.4938,484.6969,387.55,457.4344,353.3313" style="stroke: #000000; stroke-width: 3.125;" />
        <!--link Package2.Class1 to Package2.Class2-->
        <path d="M390.3844,640.625 C412.5875,640.625 434.7906,640.625 456.9938,640.625 " fill="none" id="Package2.Class1-Package2.Class2" style="stroke: #000000; stroke-width: 3.125;" />
        <polygon fill="#000000" points="349.0719,640.625,367.8219,653.125,386.5719,640.625,367.8219,628.125,349.0719,640.625" style="stroke: #000000; stroke-width: 3.125;" />
        <!--link Package1.BaseClass to Package3.Class1-->
        <path d="M726.1938,376.8813 C786.4531,439.2188 859.0719,514.3413 910.8313,567.8853 " fill="none" id="Package1.BaseClass-Package3.Class1" style="stroke: #000000; stroke-width: 3.125;" />
        <polygon fill="none" points="709.825,391.4219,682.1125,331.2813,741.2813,361.0125,709.825,391.4219" style="stroke: #000000; stroke-width: 3.125;" />
        <!--link Package3.Class1 to Package3.Class2-->
        <path d="M1134.1344,640.625 C1156.3375,640.625 1178.5406,640.625 1200.7438,640.625 " fill="none" id="Package3.Class1-Package3.Class2" style="stroke: #000000; stroke-width: 3.125;" />
        <polygon fill="#000000" points="1092.8219,640.625,1111.5719,653.125,1130.3219,640.625,1111.5719,628.125,1092.8219,640.625" style="stroke: #000000; stroke-width: 3.125;" />
        <!--
@startuml

skinparam shadowing false

skinparam dpi 300

skinparam default{
  FontColor Black
  FontName sans-serif
  FontSize 14
  FontStyle normal
  MonospacedFontName monospace
  TextAlign left
}

skinparam note {
  BackgroundColor LemonChiffon
  BorderColor Black
  BorderThickness 1
  FontColor Black
  FontName sans-serif
  FontSize 10
  FontStyle normal
}

skinparam actor {
  BackgroundColor WhiteSmoke
  BorderColor Black
  FontColor Black
  FontName sans-serif
  FontSize 14
  FontStyle normal
  StereotypeFontColor Black
  StereotypeFontName monospace
  StereotypeFontSize 10
  StereotypeFontStyle normal
}

skinparam boundary {
  BackgroundColor WhiteSmoke
  BorderColor Black
  FontColor Black
  FontName sans-serif
  FontSize 14
  FontStyle normal
  StereotypeFontColor Black
  StereotypeFontName monospace
  StereotypeFontSize 10
  StereotypeFontStyle normal
}

skinparam control {
  BackgroundColor WhiteSmoke
  BorderColor Black
  FontColor Black
  FontName sans-serif
  FontSize 14
  FontStyle normal
  StereotypeFontColor Black
  StereotypeFontName monospace
  StereotypeFontSize 10
  StereotypeFontStyle normal
}

skinparam entity {
  BackgroundColor WhiteSmoke
  BorderColor Black
  FontColor Black
  FontName sans-serif
  FontSize 14
  FontStyle normal
  StereotypeFontColor Black
  StereotypeFontName monospace
  StereotypeFontSize 10
  StereotypeFontStyle normal
}

skinparam database {
  BackgroundColor WhiteSmoke
  BorderColor Black
  FontColor Black
  FontName sans-serif
  FontSize 14
  FontStyle normal
  StereotypeFontColor Black
  StereotypeFontName monospace
  StereotypeFontSize 10
  StereotypeFontStyle normal
}

skinparam participant {
  BackgroundColor WhiteSmoke
  BorderColor Black
  FontColor Black
  FontName sans-serif
  FontSize 14
  FontStyle normal
}

skinparam sequence {
  LifeLineBackgroundColor White
  LifeLineBorderColor Black
  LifeLineBorderThickness 1

  ArrowColor Black
  ArrowFontName sans-serif
  ArrowFontColor Black
  ArrowFontSize 10
  ArrowFontStyle normal
  ArrowThickness 1
  MessageAlign center

  GroupBackgroundColor WhiteSmoke
  GroupBodyBackgroundColor White
  GroupBorderColor Black
  GroupBorderThickness 1
  GroupFontColor Black
  GroupFontName sans-serif
  GroupFontSize 10
  GroupFontStyle normal
  GroupHeaderFontColor Black
  GroupHeaderFontName sans-serif
  GroupHeaderFontSize 10
  GroupHeaderFontStyle normal

  ReferenceBackgroundColor White
  ReferenceBorderColor Black
  ReferenceBorderThickness 1
  ReferenceFontColor Black
  ReferenceFontName sans-serif
  ReferenceFontSize 10
  ReferenceFontStyle normal
  ReferenceHeaderBackgroundColor WhiteSmoke

  ActorBorderThickness 1.5
  ParticipantBorderThickness 1.5
}

skinparam class {
  FontColor Black
  FontName sans-serif
  FontSize 14
  FontStyle normal

  BackgroundColor White
  BorderColor Black
  BorderThickness 1
  HeaderBackgroundColor White

  ArrowColor Black
  ArrowFontName sans-serif
  ArrowFontColor Black
  ArrowFontSize 10
  ArrowFontStyle normal
  ArrowThickness 1
  MessageAlign center

  StereotypeFontColor black
  StereotypeFontSize 10

  AttributeFontColor black
  AttributeFontSize 10


}

namespace Package1 {
  class BaseClass
}
namespace Package2 {
  Package1.BaseClass <|- - Class1
  Class1 *- Class2
}
namespace Package3 {
  Package1.BaseClass <|- - Class1
  Class1 *- Class2
}

@enduml

PlantUML version 1.2018.14(Sat Dec 22 01:33:16 JST 2018)
(GPL source distribution)
Java Runtime: OpenJDK Runtime Environment
JVM: OpenJDK 64-Bit Server VM
Java Version: 11.0.1+13
Operating System: Windows 7
OS Version: 6.1
Default Encoding: MS932
Language: ja
Country: JP
-->
    </g>
</svg>