<?xml version="1.0" encoding="UTF-8" standalone="no"?><svg xmlns="http://www.w3.org/2000/svg" xmlns:xlink="http://www.w3.org/1999/xlink" contentScriptType="application/ecmascript" contentStyleType="text/css" height="1009.375px" preserveAspectRatio="none" style="width:703px;height:1009px;" version="1.1" viewBox="0 0 703 1009" width="703.125px" zoomAndPan="magnify"><defs/><g><rect fill="#FFFFFF" height="341.6992" style="stroke: #000000; stroke-width: 3.125;" width="31.25" x="340.625" y="198.7793"/><rect fill="#FFFFFF" height="249.1699" style="stroke: #000000; stroke-width: 3.125;" width="31.25" x="340.625" y="701.6602"/><rect fill="#FFFFFF" height="83.0566" style="stroke: #000000; stroke-width: 3.125;" width="31.25" x="601.5625" y="784.7168"/><rect fill="#F5F5F5" height="98.7793" style="stroke: #000000; stroke-width: 4.6875;" width="146.875" x="543.75" y="225.5859"/><text fill="#000000" font-family="sans-serif" font-size="43.75" lengthAdjust="spacingAndGlyphs" textLength="103.125" x="565.625" y="292.8772">Chris</text><line style="stroke: #000000; stroke-width: 3.125; stroke-dasharray: 5.0,5.0;" x1="93.75" x2="93.75" y1="111.2793" y2="1008.8867"/><line style="stroke: #000000; stroke-width: 3.125; stroke-dasharray: 5.0,5.0;" x1="354.6875" x2="354.6875" y1="111.2793" y2="1008.8867"/><line style="stroke: #000000; stroke-width: 3.125; stroke-dasharray: 5.0,5.0;" x1="615.625" x2="615.625" y1="323.4131" y2="1008.8867"/><rect fill="#F5F5F5" height="98.7793" style="stroke: #000000; stroke-width: 4.6875;" width="137.5" x="25" y="9.375"/><text fill="#000000" font-family="sans-serif" font-size="43.75" lengthAdjust="spacingAndGlyphs" textLength="93.75" x="46.875" y="76.6663">Alice</text><rect fill="#F5F5F5" height="98.7793" style="stroke: #000000; stroke-width: 4.6875;" width="121.875" x="295.3125" y="9.375"/><text fill="#000000" font-family="sans-serif" font-size="43.75" lengthAdjust="spacingAndGlyphs" textLength="78.125" x="317.1875" y="76.6663">Bob</text><rect fill="#FFFFFF" height="341.6992" style="stroke: #000000; stroke-width: 3.125;" width="31.25" x="340.625" y="198.7793"/><rect fill="#FFFFFF" height="249.1699" style="stroke: #000000; stroke-width: 3.125;" width="31.25" x="340.625" y="701.6602"/><rect fill="#FFFFFF" height="83.0566" style="stroke: #000000; stroke-width: 3.125;" width="31.25" x="601.5625" y="784.7168"/><polygon fill="#000000" points="303.125,186.2793,334.375,198.7793,303.125,211.2793,315.625,198.7793" style="stroke: #000000; stroke-width: 3.125;"/><line style="stroke: #000000; stroke-width: 3.125;" x1="93.75" x2="321.875" y1="198.7793" y2="198.7793"/><text fill="#000000" font-family="sans-serif" font-size="31.25" lengthAdjust="spacingAndGlyphs" textLength="178.125" x="128.125" y="187.4695">Create Chris</text><polygon fill="#000000" points="506.25,269.3359,537.5,281.8359,506.25,294.3359,518.75,281.8359" style="stroke: #000000; stroke-width: 3.125;"/><line style="stroke: #000000; stroke-width: 3.125;" x1="371.875" x2="525" y1="281.8359" y2="281.8359"/><text fill="#000000" font-family="sans-serif" font-size="31.25" lengthAdjust="spacingAndGlyphs" textLength="96.875" x="409.375" y="270.5261">Create</text><rect fill="#F5F5F5" height="98.7793" style="stroke: #000000; stroke-width: 4.6875;" width="146.875" x="543.75" y="225.5859"/><text fill="#000000" font-family="sans-serif" font-size="43.75" lengthAdjust="spacingAndGlyphs" textLength="103.125" x="565.625" y="292.8772">Chris</text><rect fill="#FFFFFF" height="109.8633" style="stroke: #000000; stroke-width: 3.125;" width="414.0625" x="285.9375" y="358.7402"/><polygon fill="#F5F5F5" points="285.9375,358.7402,464.0625,358.7402,464.0625,371.2402,432.8125,402.4902,285.9375,402.4902,285.9375,358.7402" style="stroke: #000000; stroke-width: 3.125;"/><text fill="#000000" font-family="sans-serif" font-size="31.25" lengthAdjust="spacingAndGlyphs" textLength="37.5" x="326.5625" y="397.4304">ref</text><text fill="#000000" font-family="sans-serif" font-size="31.25" lengthAdjust="spacingAndGlyphs" textLength="128.125" x="428.9063" y="447.4304">Initialize</text><polygon fill="#000000" points="128.125,527.9785,96.875,540.4785,128.125,552.9785,115.625,540.4785" style="stroke: #000000; stroke-width: 3.125;"/><line style="stroke: #000000; stroke-width: 3.125; stroke-dasharray: 2.0,2.0;" x1="109.375" x2="353.125" y1="540.4785" y2="540.4785"/><text fill="#000000" font-family="sans-serif" font-size="31.25" lengthAdjust="spacingAndGlyphs" textLength="121.875" x="164.0625" y="529.1687">Success</text><polygon fill="#000000" points="303.125,689.1602,334.375,701.6602,303.125,714.1602,315.625,701.6602" style="stroke: #000000; stroke-width: 3.125;"/><line style="stroke: #000000; stroke-width: 3.125;" x1="93.75" x2="321.875" y1="701.6602" y2="701.6602"/><text fill="#000000" font-family="sans-serif" font-size="31.25" lengthAdjust="spacingAndGlyphs" textLength="187.5" x="123.4375" y="690.3503">Destroy Chris</text><polygon fill="#000000" points="564.0625,772.2168,595.3125,784.7168,564.0625,797.2168,576.5625,784.7168" style="stroke: #000000; stroke-width: 3.125;"/><line style="stroke: #000000; stroke-width: 3.125;" x1="371.875" x2="582.8125" y1="784.7168" y2="784.7168"/><text fill="#000000" font-family="sans-serif" font-size="31.25" lengthAdjust="spacingAndGlyphs" textLength="106.25" x="433.5938" y="773.407">Destroy</text><polygon fill="#000000" points="406.25,855.2734,375,867.7734,406.25,880.2734,393.75,867.7734" style="stroke: #000000; stroke-width: 3.125;"/><line style="stroke: #000000; stroke-width: 3.125; stroke-dasharray: 2.0,2.0;" x1="387.5" x2="614.0625" y1="867.7734" y2="867.7734"/><text fill="#000000" font-family="sans-serif" font-size="31.25" lengthAdjust="spacingAndGlyphs" textLength="78.125" x="455.4688" y="856.4636">Done</text><line style="stroke: #000000; stroke-width: 6.25;" x1="589.0625" x2="645.3125" y1="839.6484" y2="895.8984"/><line style="stroke: #000000; stroke-width: 6.25;" x1="589.0625" x2="645.3125" y1="895.8984" y2="839.6484"/><polygon fill="#000000" points="128.125,938.3301,96.875,950.8301,128.125,963.3301,115.625,950.8301" style="stroke: #000000; stroke-width: 3.125;"/><line style="stroke: #000000; stroke-width: 3.125; stroke-dasharray: 2.0,2.0;" x1="109.375" x2="353.125" y1="950.8301" y2="950.8301"/><text fill="#000000" font-family="sans-serif" font-size="31.25" lengthAdjust="spacingAndGlyphs" textLength="121.875" x="164.0625" y="939.5203">Success</text></g></svg>