<?xml version="1.0" encoding="UTF-8" standalone="no"?><svg xmlns="http://www.w3.org/2000/svg" xmlns:xlink="http://www.w3.org/1999/xlink" contentScriptType="application/ecmascript" contentStyleType="text/css" height="796.875px" preserveAspectRatio="none" style="width:1046px;height:796px;" version="1.1" viewBox="0 0 1046 796" width="1046.875px" zoomAndPan="magnify"><defs/><g><rect fill="#FFFFFF" height="289.7949" style="stroke: #000000; stroke-width: 3.125;" width="31.25" x="731.25" y="281.8359"/><rect fill="#FFFFFF" height="98.6816" style="stroke: #000000; stroke-width: 3.125;" width="31.25" x="746.875" y="389.8926"/><line style="stroke: #000000; stroke-width: 3.125; stroke-dasharray: 5.0,5.0;" x1="340.625" x2="340.625" y1="111.2793" y2="795.8008"/><line style="stroke: #000000; stroke-width: 3.125; stroke-dasharray: 5.0,5.0;" x1="745.3125" x2="745.3125" y1="111.2793" y2="795.8008"/><rect fill="#F5F5F5" height="98.7793" style="stroke: #000000; stroke-width: 4.6875;" width="137.5" x="271.875" y="9.375"/><text fill="#000000" font-family="sans-serif" font-size="43.75" lengthAdjust="spacingAndGlyphs" textLength="93.75" x="293.75" y="76.6663">Alice</text><rect fill="#F5F5F5" height="98.7793" style="stroke: #000000; stroke-width: 4.6875;" width="121.875" x="685.9375" y="9.375"/><text fill="#000000" font-family="sans-serif" font-size="43.75" lengthAdjust="spacingAndGlyphs" textLength="78.125" x="707.8125" y="76.6663">Bob</text><rect fill="#FFFFFF" height="289.7949" style="stroke: #000000; stroke-width: 3.125;" width="31.25" x="731.25" y="281.8359"/><rect fill="#FFFFFF" height="98.6816" style="stroke: #000000; stroke-width: 3.125;" width="31.25" x="746.875" y="389.8926"/><ellipse cx="32.8125" cy="196.4355" fill="none" rx="12.5" ry="12.5" style="stroke: #000000; stroke-width: 4.6875;"/><line style="stroke: #000000; stroke-width: 3.125;" x1="334.375" x2="303.125" y1="198.7793" y2="186.2793"/><line style="stroke: #000000; stroke-width: 3.125;" x1="334.375" x2="303.125" y1="198.7793" y2="211.2793"/><line style="stroke: #000000; stroke-width: 3.125;" x1="46.875" x2="337.5" y1="198.7793" y2="198.7793"/><text fill="#000000" font-family="sans-serif" font-size="31.25" lengthAdjust="spacingAndGlyphs" textLength="231.25" x="71.875" y="187.4695">Found Message</text><polygon fill="#000000" points="693.75,269.3359,725,281.8359,693.75,294.3359,706.25,281.8359" style="stroke: #000000; stroke-width: 3.125;"/><line style="stroke: #000000; stroke-width: 3.125;" x1="340.625" x2="712.5" y1="281.8359" y2="281.8359"/><text fill="#000000" font-family="sans-serif" font-size="31.25" lengthAdjust="spacingAndGlyphs" textLength="318.75" x="376.5625" y="270.5261">Synchronous Request</text><line style="stroke: #000000; stroke-width: 3.125;" x1="762.5" x2="909.375" y1="351.0742" y2="351.0742"/><line style="stroke: #000000; stroke-width: 3.125;" x1="909.375" x2="909.375" y1="351.0742" y2="391.6992"/><line style="stroke: #000000; stroke-width: 3.125;" x1="781.25" x2="909.375" y1="391.6992" y2="391.6992"/><polygon fill="#000000" points="812.5,379.1992,781.25,391.6992,812.5,404.1992,800,391.6992" style="stroke: #000000; stroke-width: 3.125;"/><text fill="#000000" font-family="sans-serif" font-size="31.25" lengthAdjust="spacingAndGlyphs" textLength="178.125" x="800" y="337.9578">Internal call</text><ellipse cx="1032.8125" cy="486.2305" fill="none" rx="12.5" ry="12.5" style="stroke: #000000; stroke-width: 4.6875;"/><line style="stroke: #000000; stroke-width: 3.125;" x1="1010.9375" x2="979.6875" y1="488.5742" y2="476.0742"/><line style="stroke: #000000; stroke-width: 3.125;" x1="1010.9375" x2="979.6875" y1="488.5742" y2="501.0742"/><line style="stroke: #000000; stroke-width: 3.125;" x1="762.5" x2="1014.0625" y1="488.5742" y2="488.5742"/><text fill="#000000" font-family="sans-serif" font-size="31.25" lengthAdjust="spacingAndGlyphs" textLength="196.875" x="800" y="477.2644">Lost Message</text><polygon fill="#000000" points="375,559.1309,343.75,571.6309,375,584.1309,362.5,571.6309" style="stroke: #000000; stroke-width: 3.125;"/><line style="stroke: #000000; stroke-width: 3.125; stroke-dasharray: 2.0,2.0;" x1="356.25" x2="743.75" y1="571.6309" y2="571.6309"/><text fill="#000000" font-family="sans-serif" font-size="31.25" lengthAdjust="spacingAndGlyphs" textLength="284.375" x="401.5625" y="560.321">Synchronous Reply</text><line style="stroke: #FF0000; stroke-width: 3.125;" x1="740.625" x2="709.375" y1="654.6875" y2="642.1875"/><line style="stroke: #FF0000; stroke-width: 3.125;" x1="740.625" x2="709.375" y1="654.6875" y2="667.1875"/><line style="stroke: #FF0000; stroke-width: 3.125;" x1="340.625" x2="743.75" y1="654.6875" y2="654.6875"/><text fill="#000000" font-family="sans-serif" font-size="31.25" lengthAdjust="spacingAndGlyphs" textLength="331.25" x="378.125" y="643.3777">Asynchronous Request</text><line style="stroke: #0000FF; stroke-width: 3.125;" x1="340.625" x2="371.875" y1="737.7441" y2="725.2441"/><line style="stroke: #0000FF; stroke-width: 3.125;" x1="340.625" x2="371.875" y1="737.7441" y2="750.2441"/><line style="stroke: #0000FF; stroke-width: 3.125; stroke-dasharray: 2.0,2.0;" x1="340.625" x2="743.75" y1="737.7441" y2="737.7441"/><text fill="#000000" font-family="sans-serif" font-size="31.25" lengthAdjust="spacingAndGlyphs" textLength="296.875" x="395.3125" y="726.4343">Asynchronous Reply</text></g></svg>