<?xml version="1.0" encoding="UTF-8" standalone="no"?><svg xmlns="http://www.w3.org/2000/svg" xmlns:xlink="http://www.w3.org/1999/xlink" contentScriptType="application/ecmascript" contentStyleType="text/css" height="731.25px" preserveAspectRatio="none" style="width:543px;height:731px;" version="1.1" viewBox="0 0 543 731" width="543.75px" zoomAndPan="magnify"><defs/><g><rect fill="#FFFFFF" height="429.5898" style="stroke: #000000; stroke-width: 3.125;" width="501.5625" x="40.625" y="247.4609"/><rect fill="#FFFFFF" height="300.9766" style="stroke: none; stroke-width: 3.125;" width="501.5625" x="40.625" y="376.0742"/><rect fill="#FFFFFF" height="128.6133" style="stroke: #000000; stroke-width: 3.125;" width="439.0625" x="71.875" y="526.5625"/><line style="stroke: #000000; stroke-width: 3.125; stroke-dasharray: 5.0,5.0;" x1="171.875" x2="171.875" y1="111.2793" y2="730.1758"/><line style="stroke: #000000; stroke-width: 3.125; stroke-dasharray: 5.0,5.0;" x1="417.1875" x2="417.1875" y1="111.2793" y2="730.1758"/><rect fill="#F5F5F5" height="98.7793" style="stroke: #000000; stroke-width: 4.6875;" width="137.5" x="103.125" y="9.375"/><text fill="#000000" font-family="sans-serif" font-size="43.75" lengthAdjust="spacingAndGlyphs" textLength="93.75" x="125" y="76.6663">Alice</text><rect fill="#F5F5F5" height="98.7793" style="stroke: #000000; stroke-width: 4.6875;" width="121.875" x="357.8125" y="9.375"/><text fill="#000000" font-family="sans-serif" font-size="43.75" lengthAdjust="spacingAndGlyphs" textLength="78.125" x="379.6875" y="76.6663">Bob</text><polygon fill="#000000" points="381.25,186.2793,412.5,198.7793,381.25,211.2793,393.75,198.7793" style="stroke: #000000; stroke-width: 3.125;"/><line style="stroke: #000000; stroke-width: 3.125;" x1="171.875" x2="400" y1="198.7793" y2="198.7793"/><text fill="#000000" font-family="sans-serif" font-size="31.25" lengthAdjust="spacingAndGlyphs" textLength="78.125" x="256.25" y="187.4695">Hello</text><rect fill="none" height="429.5898" style="stroke: #000000; stroke-width: 3.125;" width="501.5625" x="40.625" y="247.4609"/><polygon fill="#F5F5F5" points="40.625,247.4609,218.75,247.4609,218.75,259.9609,187.5,291.2109,40.625,291.2109,40.625,247.4609" style="stroke: #000000; stroke-width: 3.125;"/><text fill="#000000" font-family="sans-serif" font-size="31.25" lengthAdjust="spacingAndGlyphs" textLength="37.5" x="87.5" y="283.0261">alt</text><text fill="#000000" font-family="sans-serif" font-size="31.25" lengthAdjust="spacingAndGlyphs" textLength="246.875" x="265.625" y="286.1511">[successful case]</text><polygon fill="#000000" points="206.25,336.7676,175,349.2676,206.25,361.7676,193.75,349.2676" style="stroke: #000000; stroke-width: 3.125;"/><line style="stroke: #000000; stroke-width: 3.125;" x1="187.5" x2="415.625" y1="349.2676" y2="349.2676"/><text fill="#000000" font-family="sans-serif" font-size="31.25" lengthAdjust="spacingAndGlyphs" textLength="78.125" x="256.25" y="337.9578">Hello</text><line style="stroke: #000000; stroke-width: 3.125; stroke-dasharray: 2.0,2.0;" x1="40.625" x2="542.1875" y1="379.1992" y2="379.1992"/><text fill="#000000" font-family="sans-serif" font-size="31.25" lengthAdjust="spacingAndGlyphs" textLength="190.625" x="56.25" y="411.6394">[failure case]</text><polygon fill="#000000" points="206.25,465.3809,175,477.8809,206.25,490.3809,193.75,477.8809" style="stroke: #000000; stroke-width: 3.125;"/><line style="stroke: #000000; stroke-width: 3.125;" x1="187.5" x2="415.625" y1="477.8809" y2="477.8809"/><text fill="#000000" font-family="sans-serif" font-size="31.25" lengthAdjust="spacingAndGlyphs" textLength="84.375" x="253.125" y="466.571">Who?</text><rect fill="none" height="128.6133" style="stroke: #000000; stroke-width: 3.125;" width="439.0625" x="71.875" y="526.5625"/><polygon fill="#F5F5F5" points="71.875,526.5625,278.125,526.5625,278.125,539.0625,246.875,570.3125,71.875,570.3125,71.875,526.5625" style="stroke: #000000; stroke-width: 3.125;"/><text fill="#000000" font-family="sans-serif" font-size="31.25" lengthAdjust="spacingAndGlyphs" textLength="65.625" x="118.75" y="562.1277">loop</text><text fill="#000000" font-family="sans-serif" font-size="31.25" lengthAdjust="spacingAndGlyphs" textLength="125" x="325" y="565.2527">[3 times]</text><polygon fill="#000000" points="381.25,615.8691,412.5,628.3691,381.25,640.8691,393.75,628.3691" style="stroke: #000000; stroke-width: 3.125;"/><line style="stroke: #000000; stroke-width: 3.125;" x1="171.875" x2="400" y1="628.3691" y2="628.3691"/><text fill="#000000" font-family="sans-serif" font-size="31.25" lengthAdjust="spacingAndGlyphs" textLength="171.875" x="209.375" y="617.0593">Hello again</text></g></svg>