<?xml version="1.0" encoding="UTF-8" standalone="no"?><svg xmlns="http://www.w3.org/2000/svg" xmlns:xlink="http://www.w3.org/1999/xlink" contentScriptType="application/ecmascript" contentStyleType="text/css" height="737.5px" preserveAspectRatio="none" style="width:753px;height:737px;" version="1.1" viewBox="0 0 753 737" width="753.125px" zoomAndPan="magnify"><defs/><g><rect fill="#FFFFFF" height="280.4199" style="stroke: #000000; stroke-width: 3.125;" width="31.25" x="440.625" y="300.5859"/><line style="stroke: #000000; stroke-width: 3.125; stroke-dasharray: 5.0,5.0;" x1="287.5" x2="287.5" y1="111.2793" y2="734.6191"/><line style="stroke: #000000; stroke-width: 3.125; stroke-dasharray: 5.0,5.0;" x1="454.6875" x2="454.6875" y1="111.2793" y2="734.6191"/><rect fill="#F5F5F5" height="98.7793" style="stroke: #000000; stroke-width: 4.6875;" width="137.5" x="218.75" y="9.375"/><text fill="#000000" font-family="sans-serif" font-size="43.75" lengthAdjust="spacingAndGlyphs" textLength="93.75" x="240.625" y="76.6663">Alice</text><rect fill="#F5F5F5" height="98.7793" style="stroke: #000000; stroke-width: 4.6875;" width="121.875" x="395.3125" y="9.375"/><text fill="#000000" font-family="sans-serif" font-size="43.75" lengthAdjust="spacingAndGlyphs" textLength="78.125" x="417.1875" y="76.6663">Bob</text><rect fill="#FFFFFF" height="280.4199" style="stroke: #000000; stroke-width: 3.125;" width="31.25" x="440.625" y="300.5859"/><polygon fill="#FFFACD" points="25,158.1543,25,226.9043,271.875,226.9043,271.875,189.4043,240.625,158.1543,25,158.1543" style="stroke: #000000; stroke-width: 3.125;"/><line style="stroke: #000000; stroke-width: 3.125;" x1="240.625" x2="240.625" y1="158.1543" y2="189.4043"/><line style="stroke: #000000; stroke-width: 3.125;" x1="271.875" x2="240.625" y1="189.4043" y2="189.4043"/><text fill="#000000" font-family="sans-serif" font-size="31.25" lengthAdjust="spacingAndGlyphs" textLength="181.25" x="43.75" y="206.2195">Start "Hello"</text><polygon fill="#000000" points="403.125,288.0859,434.375,300.5859,403.125,313.0859,415.625,300.5859" style="stroke: #000000; stroke-width: 3.125;"/><line style="stroke: #000000; stroke-width: 3.125;" x1="287.5" x2="421.875" y1="300.5859" y2="300.5859"/><text fill="#000000" font-family="sans-serif" font-size="31.25" lengthAdjust="spacingAndGlyphs" textLength="78.125" x="325" y="289.2761">Hello</text><polygon fill="#FFFACD" points="215.625,343.0176,359.375,343.0176,390.625,374.2676,359.375,405.5176,215.625,405.5176,184.375,374.2676,215.625,343.0176" style="stroke: #000000; stroke-width: 3.125;"/><text fill="#000000" font-family="sans-serif" font-size="31.25" lengthAdjust="spacingAndGlyphs" textLength="131.25" x="221.875" y="387.9578">Wating...</text><polygon fill="#FFFACD" points="487.5,438.5742,487.5,507.3242,750,507.3242,750,469.8242,718.75,438.5742,487.5,438.5742" style="stroke: #000000; stroke-width: 3.125;"/><line style="stroke: #000000; stroke-width: 3.125;" x1="718.75" x2="718.75" y1="438.5742" y2="469.8242"/><line style="stroke: #000000; stroke-width: 3.125;" x1="750" x2="718.75" y1="469.8242" y2="469.8242"/><text fill="#000000" font-family="sans-serif" font-size="31.25" lengthAdjust="spacingAndGlyphs" textLength="196.875" x="506.25" y="486.6394">Reply "Hello"</text><polygon fill="#000000" points="321.875,568.5059,290.625,581.0059,321.875,593.5059,309.375,581.0059" style="stroke: #000000; stroke-width: 3.125;"/><line style="stroke: #000000; stroke-width: 3.125; stroke-dasharray: 2.0,2.0;" x1="303.125" x2="453.125" y1="581.0059" y2="581.0059"/><text fill="#000000" font-family="sans-serif" font-size="31.25" lengthAdjust="spacingAndGlyphs" textLength="78.125" x="332.8125" y="569.696">Hello</text><rect fill="#FFFACD" height="62.5" style="stroke: #000000; stroke-width: 3.125;" width="281.25" x="228.125" y="623.4375"/><text fill="#000000" font-family="sans-serif" font-size="31.25" lengthAdjust="spacingAndGlyphs" textLength="256.25" x="241.4063" y="668.3777">Complete "Hello"</text></g></svg>