<?xml version="1.0" encoding="UTF-8" standalone="no"?><svg xmlns="http://www.w3.org/2000/svg" xmlns:xlink="http://www.w3.org/1999/xlink" contentScriptType="application/ecmascript" contentStyleType="text/css" height="321.875px" preserveAspectRatio="none" style="width:1268px;height:321px;" version="1.1" viewBox="0 0 1268 321" width="1268.75px" zoomAndPan="magnify"><defs/><g><line style="stroke: #000000; stroke-width: 3.125; stroke-dasharray: 5.0,5.0;" x1="84.375" x2="84.375" y1="258.1543" y2="320.6543"/><line style="stroke: #000000; stroke-width: 3.125; stroke-dasharray: 5.0,5.0;" x1="281.25" x2="281.25" y1="258.1543" y2="320.6543"/><line style="stroke: #000000; stroke-width: 3.125; stroke-dasharray: 5.0,5.0;" x1="500" x2="500" y1="258.1543" y2="320.6543"/><line style="stroke: #000000; stroke-width: 3.125; stroke-dasharray: 5.0,5.0;" x1="675" x2="675" y1="258.1543" y2="320.6543"/><line style="stroke: #000000; stroke-width: 3.125; stroke-dasharray: 5.0,5.0;" x1="875" x2="875" y1="258.1543" y2="320.6543"/><line style="stroke: #000000; stroke-width: 3.125; stroke-dasharray: 5.0,5.0;" x1="1137.5" x2="1137.5" y1="258.1543" y2="320.6543"/><text fill="#000000" font-family="sans-serif" font-size="43.75" lengthAdjust="spacingAndGlyphs" textLength="103.125" x="25" y="248.5413">Actor</text><ellipse cx="85.9375" cy="39.0625" fill="#F5F5F5" rx="25" ry="25" style="stroke: #000000; stroke-width: 4.6875;"/><path d="M85.9375,64.0625 L85.9375,148.4375 M45.3125,89.0625 L126.5625,89.0625 M85.9375,148.4375 L45.3125,195.3125 M85.9375,148.4375 L126.5625,195.3125 " fill="#F5F5F5" style="stroke: #000000; stroke-width: 4.6875;"/><text fill="#000000" font-family="sans-serif" font-size="43.75" lengthAdjust="spacingAndGlyphs" textLength="190.625" x="178.125" y="248.5413">Boundary</text><path d="M218.75,115.625 L218.75,190.625 M218.75,153.125 L271.875,153.125 " fill="#F5F5F5" style="stroke: #000000; stroke-width: 4.6875;"/><ellipse cx="309.375" cy="153.125" fill="#F5F5F5" rx="37.5" ry="37.5" style="stroke: #000000; stroke-width: 4.6875;"/><text fill="#000000" font-family="sans-serif" font-size="43.75" lengthAdjust="spacingAndGlyphs" textLength="143.75" x="418.75" y="248.5413">Control</text><ellipse cx="500" cy="153.125" fill="#F5F5F5" rx="37.5" ry="37.5" style="stroke: #000000; stroke-width: 4.6875;"/><polygon fill="#000000" points="487.5,115.625,506.25,100,500,115.625,506.25,131.25,487.5,115.625" style="stroke: #000000; stroke-width: 3.125;"/><text fill="#000000" font-family="sans-serif" font-size="43.75" lengthAdjust="spacingAndGlyphs" textLength="109.375" x="612.5" y="248.5413">Entity</text><ellipse cx="676.5625" cy="153.125" fill="#F5F5F5" rx="37.5" ry="37.5" style="stroke: #000000; stroke-width: 4.6875;"/><line style="stroke: #000000; stroke-width: 4.6875;" x1="639.0625" x2="714.0625" y1="196.875" y2="196.875"/><text fill="#000000" font-family="sans-serif" font-size="43.75" lengthAdjust="spacingAndGlyphs" textLength="190.625" x="771.875" y="248.5413">Database</text><path d="M820.3125,103.125 C820.3125,71.875 876.5625,71.875 876.5625,71.875 C876.5625,71.875 932.8125,71.875 932.8125,103.125 L932.8125,171.875 C932.8125,203.125 876.5625,203.125 876.5625,203.125 C876.5625,203.125 820.3125,203.125 820.3125,171.875 L820.3125,103.125 " fill="#F5F5F5" style="stroke: #000000; stroke-width: 4.6875;"/><path d="M820.3125,103.125 C820.3125,134.375 876.5625,134.375 876.5625,134.375 C876.5625,134.375 932.8125,134.375 932.8125,103.125 " fill="none" style="stroke: #000000; stroke-width: 4.6875;"/><rect fill="#F5F5F5" height="98.7793" style="stroke: #000000; stroke-width: 4.6875;" width="253.125" x="1012.5" y="156.25"/><text fill="#000000" font-family="sans-serif" font-size="43.75" lengthAdjust="spacingAndGlyphs" textLength="209.375" x="1034.375" y="223.5413">Participant</text></g></svg>